<svg width="50" height="18" viewBox="0 0 50 18" fill="none" xmlns="http://www.w3.org/2000/svg">
<circle cx="6" cy="9" r="6" fill="#A0A09B"/>
<path d="M19.032 13H22.464C24.204 13 25.584 12.28 25.584 10.432C25.584 9.364 25.092 8.716 24.264 8.368C24.864 8.02 25.224 7.276 25.224 6.448C25.224 4.72 23.784 4.3 22.164 4.3H19.032V13ZM20.256 8.992H22.404C23.712 8.992 24.324 9.424 24.324 10.444C24.324 11.428 23.712 11.968 22.476 11.968H20.256V8.992ZM20.256 5.332H22.356C23.328 5.332 23.988 5.728 23.988 6.616C23.988 7.636 23.352 8.02 22.356 8.02H20.256V5.332ZM28.3185 4.3H27.0945V13H28.3185V10.264L29.6865 8.752L32.6745 13H34.1385L30.5145 7.852L33.7665 4.3H32.2425L28.3185 8.68V4.3ZM36.3107 4.3H35.0867V13H40.9067V11.944H36.3107V4.3ZM48.9382 13V4.3H47.7142V11.704L43.7422 4.3H41.9422V13H43.1662V5.572L47.1502 13H48.9382Z" fill="#1E1E19"/>
</svg>
