<svg width="24" height="25" viewBox="0 0 24 25" fill="none" xmlns="http://www.w3.org/2000/svg">
    <path fill-rule="evenodd" clip-rule="evenodd" d="M13.308 14.6C13.488 14.828 13.704 15.086 13.704 15.086C15.03 15.044 15.54 14.174 15.54 14.174C15.54 12.242 14.676 10.676 14.676 10.676C13.812 10.028 12.99 10.046 12.99 10.046L12.906 10.142C13.926 10.454 14.4 10.904 14.4 10.904C13.776 10.562 13.164 10.394 12.594 10.328C12.162 10.28 11.748 10.292 11.382 10.34C11.3506 10.34 11.3237 10.3446 11.2934 10.3497L11.28 10.352C11.07 10.37 10.56 10.448 9.918 10.73C9.696 10.832 9.564 10.904 9.564 10.904C9.564 10.904 10.062 10.43 11.142 10.118L11.082 10.046C11.082 10.046 10.26 10.028 9.396 10.676C9.396 10.676 8.532 12.242 8.532 14.174C8.532 14.174 9.036 15.044 10.362 15.086C10.362 15.086 10.584 14.816 10.764 14.588C10.002 14.36 9.714 13.88 9.714 13.88C9.714 13.88 9.774 13.922 9.882 13.982C9.888 13.988 9.894 13.994 9.906 14C9.915 14.006 9.924 14.0105 9.933 14.015C9.942 14.0195 9.951 14.024 9.96 14.03C10.11 14.114 10.26 14.18 10.398 14.234C10.644 14.33 10.938 14.426 11.28 14.492C11.73 14.576 12.258 14.606 12.834 14.498C13.116 14.45 13.404 14.366 13.704 14.24C13.914 14.162 14.148 14.048 14.394 13.886C14.394 13.886 14.094 14.378 13.308 14.6ZM10.302 12.95C10.302 12.584 10.572 12.284 10.914 12.284C11.256 12.284 11.532 12.584 11.526 12.95C11.526 13.316 11.256 13.616 10.914 13.616C10.578 13.616 10.302 13.316 10.302 12.95ZM12.492 12.95C12.492 12.584 12.762 12.284 13.104 12.284C13.446 12.284 13.716 12.584 13.716 12.95C13.716 13.316 13.446 13.616 13.104 13.616C12.768 13.616 12.492 13.316 12.492 12.95Z" fill="#1E1E19"/>
    <path fill-rule="evenodd" clip-rule="evenodd" d="M20.25 0.5C22.3211 0.5 24 2.17893 24 4.25V20.75C24 22.8211 22.3211 24.5 20.25 24.5H3.75C1.67893 24.5 0 22.8211 0 20.75V4.25C0 2.17893 1.67893 0.5 3.75 0.5H20.25ZM7.98 7.25H16.02C16.698 7.25 17.25 7.802 17.25 8.486V19.25L15.96 18.11L15.234 17.438L14.466 16.724L14.784 17.834H7.98C7.302 17.834 6.75 17.282 6.75 16.598V8.486C6.75 7.802 7.302 7.25 7.98 7.25Z" fill="#1E1E19"/>
</svg>
