<svg width="16" height="16" viewBox="0 0 16 16" fill="none" xmlns="http://www.w3.org/2000/svg">
    <path d="M1 11.5L0.646447 11.1464L0.5 11.2929V11.5H1ZM8.875 3.625L9.22855 3.27145L8.875 2.91789L8.52145 3.27145L8.875 3.625ZM12.375 7.125L12.7286 7.47855L13.0821 7.125L12.7286 6.77145L12.375 7.125ZM4.5 15V15.5H4.70711L4.85355 15.3536L4.5 15ZM1 15H0.5V15.5H1V15ZM6.60355 5.89645L6.25 5.54289L5.54289 6.25L5.89645 6.60355L6.60355 5.89645ZM9.39645 10.1036L9.75 10.4571L10.4571 9.75L10.1036 9.39645L9.39645 10.1036ZM1 1V0.5H0.5V1H1ZM15 1H15.5V0.5H15V1ZM15 15V15.5H15.5V15H15ZM8 14.5H7.5V15.5H8V14.5ZM0.5 8V8.5H1.5V8H0.5ZM1.35355 11.8536L9.22855 3.97855L8.52145 3.27145L0.646447 11.1464L1.35355 11.8536ZM8.52145 3.97855L12.0214 7.47855L12.7286 6.77145L9.22855 3.27145L8.52145 3.97855ZM12.0214 6.77145L4.14645 14.6464L4.85355 15.3536L12.7286 7.47855L12.0214 6.77145ZM4.5 14.5H1V15.5H4.5V14.5ZM1.5 15V11.5H0.5V15H1.5ZM5.89645 6.60355L9.39645 10.1036L10.1036 9.39645L6.60355 5.89645L5.89645 6.60355ZM1 1.5H15V0.5H1V1.5ZM14.5 1V15H15.5V1H14.5ZM15 14.5H8V15.5H15V14.5ZM1.5 8V1H0.5V8H1.5Z" fill="#1E1E19"/>
</svg>
