<svg width="40" height="40" viewBox="0 0 40 40" fill="none" xmlns="http://www.w3.org/2000/svg">
    <g clip-path="url(#clip0_301_6029)">
        <path d="M30.3333 4.5H9.66667C6.8132 4.5 4.5 6.8132 4.5 9.66667V30.3333C4.5 33.1868 6.8132 35.5 9.66667 35.5H30.3333C33.1868 35.5 35.5 33.1868 35.5 30.3333V9.66667C35.5 6.8132 33.1868 4.5 30.3333 4.5Z" fill="#1877F2"/>
        <path fill-rule="evenodd" clip-rule="evenodd" d="M25.89 15.8279V18.8116H30.5142L29.92 23.5004H25.89V35.5H21.059V23.4874H17.0161V18.8116H21.059V15.3629C21.059 11.3587 23.5003 9.17578 27.0782 9.17578C28.7832 9.17578 30.2557 9.30495 30.6819 9.36953V13.5545H28.2019C26.2644 13.5545 25.8899 14.4716 25.8899 15.8279H25.89Z" fill="#F5F5F3"/>
    </g>
    <defs>
        <clipPath id="clip0_301_6029">
            <rect width="31" height="31" fill="white" transform="translate(4.5 4.5)"/>
        </clipPath>
    </defs>
</svg>
