<svg width="40" height="40" viewBox="0 0 40 40" fill="none" xmlns="http://www.w3.org/2000/svg">
    <path d="M36.1597 20.3716C36.1597 19.2846 36.0634 18.2527 35.8983 17.2483H20.3506V23.4536H29.2527C28.8537 25.49 27.6842 27.2098 25.9505 28.3794V32.5071H31.2615C34.3711 29.6314 36.1597 25.3936 36.1597 20.3716Z" fill="#4285F4"/>
    <path d="M20.3502 36.5107C24.8081 36.5107 28.5368 35.0247 31.2611 32.5068L25.9501 28.3791C24.4641 29.3697 22.5792 29.9751 20.3502 29.9751C16.0436 29.9751 12.3975 27.072 11.0904 23.1506H5.61426V27.4022C8.32479 32.7957 13.8972 36.5107 20.3502 36.5107Z" fill="#34A853"/>
    <path d="M11.0909 23.1507C10.7469 22.1601 10.568 21.1006 10.568 19.9999C10.568 18.8992 10.7606 17.8397 11.0909 16.8491V12.5975H5.61476C4.48652 14.8265 3.83984 17.3306 3.83984 19.9999C3.83984 22.6692 4.48652 25.1733 5.61476 27.4023L11.0909 23.1507Z" fill="#FBBC05"/>
    <path d="M20.3502 10.0247C22.7855 10.0247 24.9595 10.864 26.6794 12.5013L31.3849 7.79572C28.5368 5.12646 24.8081 3.48914 20.3502 3.48914C13.8972 3.48914 8.32479 7.20408 5.61426 12.5976L11.0904 16.8492C12.3975 12.9278 16.0436 10.0247 20.3502 10.0247Z" fill="#EA4335"/>
</svg>
