<svg width="24" height="25" viewBox="0 0 24 25" fill="none" xmlns="http://www.w3.org/2000/svg">
    <path d="M12 14.6C10.875 14.6 9.9 13.7 9.9 12.5C9.9 11.375 10.8 10.4 12 10.4C13.125 10.4 14.1 11.3 14.1 12.5C14.1 13.625 13.125 14.6 12 14.6Z" fill="#1E1E19"/>
    <path fill-rule="evenodd" clip-rule="evenodd" d="M14.55 7.4H9.45C8.85 7.475 8.55 7.55 8.325 7.625C8.025 7.7 7.8 7.85 7.575 8.075C7.39696 8.25304 7.31284 8.43108 7.21116 8.64628C7.18437 8.70299 7.15628 8.76244 7.125 8.825C7.1134 8.85981 7.1 8.89641 7.08564 8.93564C7.00718 9.15 6.9 9.44282 6.9 9.95V15.05C6.975 15.65 7.05 15.95 7.125 16.175C7.2 16.475 7.35 16.7 7.575 16.925C7.75304 17.103 7.93108 17.1872 8.14628 17.2888C8.20304 17.3157 8.26239 17.3437 8.325 17.375C8.35981 17.3866 8.39641 17.4 8.43564 17.4144C8.65 17.4928 8.94282 17.6 9.45 17.6H14.55C15.15 17.525 15.45 17.45 15.675 17.375C15.975 17.3 16.2 17.15 16.425 16.925C16.603 16.747 16.6872 16.5689 16.7888 16.3537C16.8156 16.297 16.8437 16.2376 16.875 16.175C16.8866 16.1402 16.9 16.1036 16.9144 16.0644C16.9928 15.85 17.1 15.5572 17.1 15.05V9.95C17.025 9.35 16.95 9.05 16.875 8.825C16.8 8.525 16.65 8.3 16.425 8.075C16.247 7.89696 16.0689 7.81284 15.8537 7.71116C15.797 7.68439 15.7375 7.65625 15.675 7.625C15.6402 7.6134 15.6036 7.6 15.5644 7.58564C15.35 7.50718 15.0572 7.4 14.55 7.4ZM12 9.275C10.2 9.275 8.775 10.7 8.775 12.5C8.775 14.3 10.2 15.725 12 15.725C13.8 15.725 15.225 14.3 15.225 12.5C15.225 10.7 13.8 9.275 12 9.275ZM16.05 9.2C16.05 9.61421 15.7142 9.95 15.3 9.95C14.8858 9.95 14.55 9.61421 14.55 9.2C14.55 8.78578 14.8858 8.45 15.3 8.45C15.7142 8.45 16.05 8.78578 16.05 9.2Z" fill="#1E1E19"/>
    <path fill-rule="evenodd" clip-rule="evenodd" d="M0 4.25C0 2.17893 1.67893 0.5 3.75 0.5H20.25C22.3211 0.5 24 2.17893 24 4.25V20.75C24 22.8211 22.3211 24.5 20.25 24.5H3.75C1.67893 24.5 0 22.8211 0 20.75V4.25ZM9.45 6.275H14.55C15.225 6.35 15.675 6.425 16.05 6.575C16.5 6.8 16.8 6.95 17.175 7.325C17.55 7.7 17.775 8.075 17.925 8.45C18.075 8.825 18.225 9.275 18.225 9.95V15.05C18.15 15.725 18.075 16.175 17.925 16.55C17.7 17 17.55 17.3 17.175 17.675C16.8 18.05 16.425 18.275 16.05 18.425C15.675 18.575 15.225 18.725 14.55 18.725H9.45C8.775 18.65 8.325 18.575 7.95 18.425C7.5 18.2 7.2 18.05 6.825 17.675C6.45 17.3 6.225 16.925 6.075 16.55C5.925 16.175 5.775 15.725 5.775 15.05V9.95C5.85 9.275 5.925 8.825 6.075 8.45C6.3 8 6.45 7.7 6.825 7.325C7.2 6.95 7.575 6.725 7.95 6.575C8.325 6.425 8.775 6.275 9.45 6.275Z" fill="#1E1E19"/>
</svg>
