<svg width="45" height="62" viewBox="0 0 45 62" fill="none" xmlns="http://www.w3.org/2000/svg">
    <path d="M7.47422 27.2141C7.47422 23.3047 7.42519 19.5782 7.48512 15.854C7.59073 9.24983 11.8225 3.58951 18.016 1.66057C27.5742 -1.31608 37.316 5.68913 37.5102 15.7113C37.5735 18.9688 37.519 22.2283 37.5266 25.487C37.5278 26.0071 37.5706 26.5276 37.6016 27.2169C38.7972 27.2169 39.9057 27.1855 41.0111 27.2232C43.505 27.3083 44.9751 28.7742 44.9819 31.2765C45.0053 39.8234 45.0057 48.3708 44.9848 56.918C44.9785 59.5263 43.5226 61.0228 40.919 61.0282C28.6362 61.0546 16.3535 61.0542 4.07181 61.029C1.47944 61.0236 0.0181504 59.5086 0.012679 56.9088C-0.00450332 48.415 -0.00408393 39.9217 0.0130981 31.4281C0.018546 28.7298 1.47268 27.2806 4.15935 27.2186C5.17182 27.1951 6.18516 27.2148 7.47459 27.2148L7.47422 27.2141ZM15.08 27.3269H29.9193C29.9193 23.2099 30.0865 19.2015 29.8707 15.2136C29.6695 11.5011 26.1594 8.60021 22.4196 8.65729C18.7083 8.71386 15.2958 11.6084 15.124 15.2128C14.9337 19.204 15.0804 23.2112 15.0804 27.326L15.08 27.3269ZM18.4137 52.0791H26.594C26.084 49.5487 25.5987 47.1516 25.118 44.7541C24.9504 43.9189 24.9017 43.2324 25.6108 42.4489C27.1555 40.7411 26.9343 38.3633 25.3187 36.85C23.7108 35.3439 21.2692 35.3481 19.6763 36.8601C18.057 38.3972 17.9829 40.6266 19.3293 42.5133C19.7241 43.0665 19.9697 43.9365 19.8674 44.5965C19.4848 47.0627 18.9299 49.5022 18.414 52.0795L18.4137 52.0791Z" fill="white"/>
</svg>
