<svg width="242" height="21" viewBox="0 0 242 21" fill="none" xmlns="http://www.w3.org/2000/svg">
<g clip-path="url(#clip0_1062_3338)">
<path d="M105.623 20.2222H98.4013V10.9722L93.0957 20.2222H88.3734L83.0679 10.9722V20.2222H75.8457V0.777832H84.7346L90.7347 11.8889L96.7346 0.777832H105.623V20.2222Z" fill="#1E1E19"/>
<path d="M120.345 20.5C111.789 20.5 108.123 17.25 108.123 10.4722V0.777832H115.345V10.4722C115.345 12.5555 116.095 14.3889 120.345 14.3889C124.595 14.3889 125.345 12.5278 125.345 10.4722V0.777832H132.567V10.4722C132.567 17.2223 128.872 20.5 120.345 20.5Z" fill="#1E1E19"/>
<path d="M141.872 13.3611C141.872 14.3055 142.761 14.9444 147.344 14.9444C151.622 14.9444 152.261 14.6667 152.261 13.9444C152.261 13.1111 151.622 13 147.066 12.8611C138.288 12.5833 134.927 11.1389 134.927 6.61115C134.927 2.33333 139.122 0.5 146.788 0.5C154.372 0.5 158.649 2.33333 158.649 7.30552H151.427C151.427 6.27778 149.761 6.05549 146.233 6.05549C142.844 6.05549 142.149 6.22222 142.149 6.97215C142.149 7.72208 142.844 7.69443 147.066 7.86104C154.733 8.16662 159.483 8.69438 159.483 13.7778C159.483 19.1389 155.038 20.5 147.066 20.5C139.094 20.5 134.649 19.1389 134.649 13.3611H141.872Z" fill="#1E1E19"/>
<path d="M168.787 6.33332V8.13887H182.12V12.8611H168.787V14.6667H182.12V20.2222H161.565V0.777832H182.12V6.33332H168.787Z" fill="#1E1E19"/>
<path d="M196.564 20.5C188.008 20.5 184.342 17.25 184.342 10.4722V0.777832H191.564V10.4722C191.564 12.5555 192.314 14.3889 196.564 14.3889C200.814 14.3889 201.564 12.5278 201.564 10.4722V0.777832H208.786V10.4722C208.786 17.2223 205.092 20.5 196.564 20.5Z" fill="#1E1E19"/>
<path d="M241.063 20.2222H233.841V10.9722L228.535 20.2222H223.813L218.508 10.9722V20.2222H211.285V0.777832H220.174L226.174 11.8889L232.174 0.777832H241.063V20.2222H241.063Z" fill="#1E1E19"/>
<path d="M12.2222 0.5C20 0.5 24.0556 3.22221 24.3611 9.36112H16.9723C16.6944 7.52779 15.2778 6.61113 12.2222 6.61113C7.94448 6.61113 7.22225 8.41667 7.22225 10.4721C7.22225 12.5555 7.97223 14.3888 12.2222 14.3888C15.2778 14.3888 16.6944 13.4444 16.9723 11.5833H24.3611C24.0556 17.75 20.0278 20.5 12.2222 20.5C3.6667 20.5 0 17.25 0 10.4722C0 3.72219 3.6667 0.5 12.2222 0.5Z" fill="#1E1E19"/>
<path d="M26.3045 10.4722C26.3045 3.72219 29.9711 0.5 38.5267 0.5C47.0545 0.5 50.7489 3.74997 50.7489 10.4722C50.7489 17.2223 47.0545 20.5 38.5267 20.5C29.9711 20.5 26.3044 17.25 26.3044 10.4722H26.3045ZM43.5267 10.4722C43.5267 8.44445 42.8045 6.61115 38.5267 6.61115C34.2489 6.61115 33.5267 8.4167 33.5267 10.4722C33.5267 12.5555 34.2767 14.3888 38.5267 14.3888C42.7767 14.3888 43.5267 12.5278 43.5267 10.4722Z" fill="#1E1E19"/>
<path d="M72.2002 6.88916H54.1445V14.1114H72.2002V6.88916Z" fill="#BEFA3C"/>
</g>
<defs>
<clipPath id="clip0_1062_3338">
<rect width="241.063" height="20" fill="white" transform="translate(0 0.5)"/>
</clipPath>
</defs>
</svg>
