<svg width="73" height="20" viewBox="0 0 73 20" fill="none" xmlns="http://www.w3.org/2000/svg">
<g clip-path="url(#clip0_935_3863)">
<path d="M12.2222 0C20 0 24.0556 2.72221 24.3611 8.86112H16.9723C16.6944 7.02779 15.2778 6.11113 12.2222 6.11113C7.94448 6.11113 7.22225 7.91667 7.22225 9.97215C7.22225 12.0555 7.97223 13.8888 12.2222 13.8888C15.2778 13.8888 16.6944 12.9444 16.9723 11.0833H24.3611C24.0556 17.25 20.0278 20 12.2222 20C3.6667 20 0 16.75 0 9.97217C0 3.22219 3.6667 0 12.2222 0Z" fill="#1E1E19"/>
<path d="M26.3045 9.97217C26.3045 3.22219 29.9711 0 38.5267 0C47.0545 0 50.7489 3.24997 50.7489 9.97217C50.7489 16.7223 47.0545 20 38.5267 20C29.9711 20 26.3044 16.75 26.3044 9.97217H26.3045ZM43.5267 9.97217C43.5267 7.94445 42.8045 6.11115 38.5267 6.11115C34.2489 6.11115 33.5267 7.9167 33.5267 9.97217C33.5267 12.0555 34.2767 13.8888 38.5267 13.8888C42.7767 13.8888 43.5267 12.0278 43.5267 9.97217Z" fill="#1E1E19"/>
<path d="M72.2002 6.38916H54.1445V13.6114H72.2002V6.38916Z" fill="#BEFA3C"/>
</g>
<defs>
<clipPath id="clip0_935_3863">
<rect width="72.2" height="20" fill="white"/>
</clipPath>
</defs>
</svg>
