<svg width="40" height="40" viewBox="0 0 40 40" fill="none" xmlns="http://www.w3.org/2000/svg">
    <g clip-path="url(#clip0_301_6140)">
        <path d="M35.6954 3.83984L22.0918 13.9434L24.6075 7.9825L35.6954 3.83984Z" fill="#E2761B"/>
        <path d="M22.0918 14.0118C22.0768 14.0118 22.062 14.0068 22.0496 13.9973C22.0253 13.9782 22.0169 13.9453 22.0288 13.9169L24.5445 7.95587C24.5519 7.93851 24.566 7.92504 24.5836 7.91831L35.6714 3.77579C35.703 3.76368 35.7391 3.77714 35.7554 3.80716C35.7716 3.83704 35.7634 3.87447 35.736 3.89479L22.1324 13.9984C22.1204 14.0072 22.106 14.0118 22.0916 14.0118H22.0918ZM24.659 8.0361L22.2521 13.7392L35.2668 4.07289L24.659 8.0361Z" fill="#E2761B"/>
        <path d="M4.29102 3.83984L17.7851 14.0391L15.3926 7.9825L4.29102 3.83984Z" fill="#E4761B"/>
        <path d="M17.7851 14.1075C17.7706 14.1075 17.756 14.1028 17.7439 14.0937L4.24979 3.8944C4.22273 3.87394 4.21479 3.83679 4.23107 3.80704C4.24736 3.77715 4.2833 3.76396 4.31494 3.77581L15.4164 7.91832C15.4346 7.92519 15.449 7.93932 15.4561 7.95736L17.8486 14.0141C17.8599 14.0425 17.8508 14.0751 17.8264 14.0937C17.8142 14.1028 17.7996 14.1075 17.7851 14.1075ZM4.70546 4.06752L17.632 13.8379L15.3401 8.03584L4.70546 4.06752Z" fill="#E4761B"/>
        <path d="M30.8008 27.2599L27.1777 32.8106L34.9296 34.9435L37.1581 27.3829L30.8008 27.2599Z" fill="#E4761B"/>
        <path d="M34.9297 35.0118L34.9115 35.0094L27.1595 32.8767C27.1385 32.8708 27.1215 32.8553 27.1138 32.835C27.1061 32.8146 27.1085 32.7918 27.1205 32.7734L30.7435 27.2226C30.7565 27.2029 30.7787 27.1879 30.8021 27.1916L37.1596 27.3147C37.181 27.3151 37.2008 27.3254 37.2134 27.3425C37.226 27.3598 37.2299 27.382 37.2238 27.4023L34.9954 34.9628C34.9868 34.9924 34.9594 35.0118 34.9298 35.0118H34.9297ZM27.2861 32.7695L34.8831 34.8597L37.0672 27.4495L30.8374 27.3288L27.2862 32.7695H27.2861Z" fill="#E4761B"/>
        <path d="M2.85547 27.3829L5.0703 34.9435L12.8223 32.8106L9.19922 27.2599L2.85547 27.3829Z" fill="#E4761B"/>
        <path d="M5.07021 35.0119C5.04059 35.0119 5.0134 34.9925 5.00465 34.9627L2.78982 27.4022C2.7839 27.3817 2.7878 27.3598 2.80032 27.3426C2.81284 27.3253 2.83276 27.3151 2.85403 27.3147L9.19778 27.1917C9.22309 27.1913 9.24342 27.2028 9.25634 27.2226L12.8794 32.7735C12.8912 32.7918 12.8938 32.8145 12.8861 32.835C12.8783 32.8555 12.8613 32.8709 12.8403 32.8767L5.08838 35.0094L5.07021 35.0119ZM2.94624 27.4496L5.11719 34.8598L12.7139 32.7696L9.16278 27.3288L2.94624 27.4496Z" fill="#E4761B"/>
        <path d="M12.3848 17.8809L10.2246 21.1485L17.9219 21.4903L17.6484 13.2188L12.3848 17.8809Z" fill="#E4761B"/>
        <path d="M17.9218 21.5587H17.9189L10.2216 21.2168C10.1969 21.2157 10.1749 21.2016 10.1637 21.1795C10.1525 21.1576 10.154 21.1313 10.1676 21.1109L12.3278 17.8432L12.3395 17.8298L17.6032 13.1678C17.6231 13.1501 17.6514 13.1458 17.6756 13.1562C17.7 13.1666 17.716 13.1902 17.7168 13.2166L17.9902 21.4881C17.9909 21.5072 17.9835 21.5256 17.97 21.539C17.9573 21.5516 17.9399 21.5587 17.922 21.5587H17.9218ZM10.3481 21.0857L17.851 21.4189L17.5849 13.3665L12.4368 17.9263L10.3481 21.0857Z" fill="#E4761B"/>
        <path d="M27.6016 17.8809L22.2696 13.123L22.0918 21.4903L29.7754 21.1485L27.6016 17.8809Z" fill="#E4761B"/>
        <path d="M22.0918 21.5588C22.0741 21.5588 22.0568 21.5518 22.044 21.5393C22.0306 21.5261 22.023 21.5079 22.0235 21.4889L22.2013 13.1218C22.2018 13.0951 22.2178 13.0711 22.2423 13.0606C22.2666 13.05 22.2951 13.0544 22.3152 13.0722L27.6471 17.8301L27.6585 17.8431L29.8322 21.1108C29.846 21.1314 29.8474 21.1576 29.8364 21.1797C29.8252 21.2016 29.803 21.2159 29.7785 21.217L22.0949 21.5588H22.0918ZM22.3348 13.2732L22.1618 21.419L29.6516 21.0859L27.5497 17.9263L22.3348 13.2732Z" fill="#E4761B"/>
        <path d="M12.8223 32.8107L17.4433 30.5549L13.4512 27.4376L12.8223 32.8107Z" fill="#E4761B"/>
        <path d="M12.8224 32.879C12.8085 32.879 12.7946 32.8747 12.7828 32.8665C12.7623 32.8519 12.7514 32.8274 12.7544 32.8027L13.3833 27.4296C13.3861 27.4051 13.402 27.3841 13.4248 27.3746C13.4475 27.3649 13.4738 27.3684 13.4932 27.3836L17.4853 30.5007C17.5039 30.5153 17.5137 30.5384 17.5112 30.5617C17.5087 30.5853 17.4945 30.6057 17.4732 30.6161L12.8521 32.872C12.8427 32.8767 12.8323 32.879 12.8221 32.879H12.8224ZM13.505 27.5663L12.9048 32.6943L17.3152 30.5412L13.505 27.5663Z" fill="#E4761B"/>
        <path d="M22.543 30.5548L27.1778 32.8105L26.5351 27.4375L22.543 30.5548Z" fill="#E4761B"/>
        <path d="M27.1777 32.879C27.1676 32.879 27.1572 32.8767 27.1478 32.872L22.5131 30.6161C22.4918 30.6058 22.4774 30.5852 22.475 30.5618C22.4724 30.5383 22.4824 30.5152 22.5009 30.5007L26.4929 27.3835C26.5123 27.3683 26.5385 27.365 26.5613 27.3744C26.584 27.3838 26.5999 27.405 26.6027 27.4295L27.2454 32.8025C27.2485 32.8273 27.2374 32.8519 27.2172 32.8663C27.2055 32.8746 27.1917 32.879 27.1775 32.879H27.1777ZM22.6714 30.5412L27.0949 32.6943L26.4816 27.566L22.6714 30.5412Z" fill="#E4761B"/>
        <path d="M27.1778 32.8106L22.543 30.5548L22.9121 33.5763L22.871 34.8477L27.1778 32.8106Z" fill="#D7C1B3"/>
        <path d="M22.871 34.9161C22.858 34.9161 22.8449 34.9123 22.8335 34.9049C22.8136 34.8919 22.802 34.8694 22.8026 34.8457L22.8436 33.5741L22.4751 30.5632C22.472 30.5384 22.4829 30.5138 22.5033 30.4992C22.5236 30.4847 22.5502 30.4823 22.5729 30.4934L27.2075 32.7493C27.2312 32.7608 27.2462 32.7849 27.246 32.8111C27.2459 32.8374 27.2307 32.8613 27.2069 32.8725L22.9002 34.9095C22.891 34.9139 22.881 34.9161 22.871 34.9161ZM22.626 30.6713L22.9798 33.5681L22.9428 34.7381L27.0196 32.8098L22.6259 30.6713H22.626Z" fill="#D7C1B3"/>
        <path d="M12.8223 32.8106L17.1289 34.8477L17.1016 33.5763L17.4433 30.5548L12.8223 32.8106Z" fill="#D7C1B3"/>
        <path d="M17.1289 34.916C17.1189 34.916 17.109 34.9139 17.0997 34.9095L12.7931 32.8725C12.7693 32.8613 12.754 32.8373 12.7539 32.8111C12.7538 32.7848 12.7687 32.7607 12.7923 32.7493L17.4133 30.4934C17.4358 30.4824 17.4625 30.4846 17.4828 30.499C17.5031 30.5133 17.5142 30.5378 17.5114 30.5626L17.1696 33.584L17.1973 34.8463C17.1977 34.87 17.186 34.8922 17.1661 34.9051C17.1548 34.9124 17.1418 34.916 17.1289 34.916ZM12.9801 32.8097L17.0582 34.7386L17.0333 33.5777L17.3615 30.6708L12.9801 32.8097Z" fill="#D7C1B3"/>
        <path d="M17.1973 25.4414L13.3418 24.3067L16.0625 23.0625L17.1973 25.4414Z" fill="#233447"/>
        <path d="M17.1971 25.5099L17.1779 25.507L13.3225 24.3724C13.2951 24.3643 13.2756 24.3402 13.2736 24.3116C13.2716 24.2832 13.2875 24.2565 13.3133 24.2446L16.034 23.0005C16.0681 22.9851 16.1081 22.9997 16.1241 23.0333L17.2588 25.4121C17.2703 25.4365 17.2666 25.4653 17.2491 25.4858C17.2359 25.5012 17.2168 25.5099 17.1971 25.5099ZM13.5365 24.2929L17.0695 25.3327L16.0297 23.1529L13.5365 24.2929Z" fill="#233447"/>
        <path d="M22.7891 25.4414L23.9239 23.0625L26.6582 24.3067L22.7891 25.4414Z" fill="#233447"/>
        <path d="M22.7891 25.5098C22.7693 25.5098 22.7502 25.5013 22.737 25.4857C22.7195 25.4651 22.7157 25.4363 22.7274 25.4121L23.8621 23.0333C23.8783 22.9996 23.9184 22.9852 23.952 23.0004L26.6865 24.2445C26.7125 24.2564 26.7284 24.2832 26.7265 24.3116C26.7244 24.3401 26.7048 24.3644 26.6775 24.3723L22.8083 25.507L22.7891 25.5098ZM23.9566 23.1525L22.9166 25.3326L26.4626 24.2927L23.9566 23.1525Z" fill="#233447"/>
        <path d="M12.8223 32.8106L13.4785 27.2599L9.19922 27.3829L12.8223 32.8106Z" fill="#CD6116"/>
        <path d="M12.8223 32.8789C12.7999 32.8789 12.7783 32.8679 12.7654 32.8485L9.14236 27.4207C9.12863 27.4 9.12702 27.3736 9.13846 27.3514C9.1499 27.3293 9.17238 27.3152 9.19729 27.3143L13.4766 27.1913C13.4945 27.1893 13.5155 27.1988 13.5289 27.2135C13.5423 27.2282 13.5487 27.248 13.5463 27.2678L12.8901 32.8186C12.8867 32.847 12.866 32.8705 12.8381 32.8771L12.8221 32.8789H12.8223ZM9.32477 27.4476L12.7763 32.6183L13.4016 27.3304L9.3249 27.4476H9.32477Z" fill="#CD6116"/>
        <path d="M26.5215 27.2598L27.1777 32.8105L30.8008 27.3828L26.5215 27.2598Z" fill="#CD6116"/>
        <path d="M27.1777 32.8789L27.1618 32.877C27.134 32.8703 27.1132 32.847 27.1099 32.8186L26.4536 27.2677C26.4512 27.248 26.4577 27.2282 26.471 27.2135C26.4845 27.1988 26.5042 27.1914 26.5235 27.1913L30.8028 27.3143C30.8276 27.3151 30.85 27.3293 30.8615 27.3513C30.8728 27.3736 30.8713 27.3999 30.8576 27.4207L27.2345 32.8485C27.2216 32.8679 27.2001 32.8789 27.1776 32.8789H27.1777ZM26.5986 27.3303L27.2238 32.6183L30.6754 27.4476L26.5987 27.3303H26.5986Z" fill="#CD6116"/>
        <path d="M29.7754 21.1486L22.0918 21.4903L22.8028 25.4414L23.9375 23.0625L26.672 24.3068L29.7754 21.1486Z" fill="#CD6116"/>
        <path d="M22.8026 25.5098L22.7936 25.5092C22.7642 25.5053 22.7405 25.4828 22.7354 25.4536L22.0245 21.5025C22.021 21.483 22.0261 21.463 22.0384 21.4476C22.0506 21.4322 22.0691 21.4229 22.0887 21.4221L29.7723 21.0803C29.8039 21.0755 29.8264 21.0951 29.8379 21.1208C29.8492 21.1464 29.8439 21.1766 29.8241 21.1965L26.7206 24.3547C26.7004 24.3752 26.6696 24.3807 26.6436 24.369L23.9704 23.1527L22.8645 25.4709C22.8531 25.495 22.8288 25.51 22.8029 25.51L22.8026 25.5098ZM22.1729 21.5551L22.8323 25.2204L23.8757 23.0332C23.8919 22.9995 23.9319 22.9851 23.9657 23.0003L26.6565 24.2247L29.6047 21.2245L22.1727 21.5551H22.1729Z" fill="#CD6116"/>
        <path d="M13.3418 24.3068L16.0762 23.0625L17.1973 25.4414L17.9219 21.4903L10.2246 21.1486L13.3418 24.3068Z" fill="#CD6116"/>
        <path d="M17.1974 25.5099C17.1711 25.5099 17.1469 25.4948 17.1356 25.4706L16.0432 23.1528L13.3702 24.369C13.3441 24.3807 13.3134 24.3752 13.2932 24.3549L10.176 21.1967C10.1562 21.1766 10.1508 21.1466 10.1621 21.1209C10.1734 21.0953 10.1982 21.0759 10.2275 21.0803L17.9248 21.4221C17.9446 21.4229 17.963 21.4322 17.9753 21.4477C17.9875 21.4632 17.9927 21.4833 17.989 21.5026L17.2644 25.4537C17.259 25.4829 17.2355 25.5054 17.206 25.5093L17.1972 25.5099H17.1974ZM16.0763 22.9943C16.102 22.9943 16.1265 23.0088 16.1382 23.0336L17.1685 25.2199L17.8407 21.5551L10.3959 21.2245L13.3572 24.2247L16.0481 23.0004C16.0573 22.9962 16.067 22.9942 16.0764 22.9942L16.0763 22.9943Z" fill="#CD6116"/>
        <path d="M10.2246 21.1486L13.4512 27.4375L13.3418 24.3068L10.2246 21.1486Z" fill="#E4751F"/>
        <path d="M13.4513 27.5059C13.4261 27.5059 13.4023 27.492 13.3904 27.4687L10.1638 21.1796C10.1483 21.1496 10.1572 21.1127 10.1846 21.0929C10.2118 21.0733 10.2494 21.0765 10.2733 21.1003L13.3906 24.2585C13.4025 24.2708 13.4095 24.2871 13.4102 24.3042L13.5195 27.4351C13.5206 27.4671 13.4995 27.4955 13.4685 27.5037L13.4513 27.5059ZM10.4887 21.5132L13.3723 27.1338L13.2745 24.3355L10.4887 21.5132Z" fill="#E4751F"/>
        <path d="M26.6719 24.3068L26.5352 27.4375L29.7753 21.1486L26.6719 24.3068Z" fill="#E4751F"/>
        <path d="M26.5352 27.5059L26.5177 27.5036C26.4866 27.4954 26.4655 27.4666 26.4669 27.4345L26.6036 24.3037C26.6044 24.2867 26.6114 24.2707 26.6233 24.2587L29.7268 21.1005C29.7507 21.0763 29.7884 21.0734 29.8157 21.0929C29.843 21.1129 29.8519 21.1496 29.8364 21.1796L26.5961 27.4687C26.5842 27.492 26.5604 27.5059 26.5354 27.5059H26.5352ZM26.7392 24.3358L26.6171 27.1294L29.5082 21.5181L26.7392 24.3358Z" fill="#E4751F"/>
        <path d="M17.9219 21.4904L17.1973 25.4414L18.0996 30.1036L18.3046 23.9649L17.9219 21.4904Z" fill="#E4751F"/>
        <path d="M18.0995 30.172C18.067 30.172 18.0386 30.149 18.0324 30.1165L17.1301 25.4544C17.1285 25.4462 17.1285 25.4374 17.1301 25.4292L17.8548 21.4781C17.8608 21.4453 17.8891 21.4235 17.9229 21.422C17.9563 21.4225 17.9844 21.4469 17.9895 21.4799L18.3723 23.9544L18.168 30.1058C18.1669 30.1406 18.1397 30.1689 18.1051 30.1716L18.0996 30.1719L18.0995 30.172ZM17.2668 25.4411L18.0514 29.4956L18.2363 23.9627L17.9161 21.9L17.2666 25.4411H17.2668Z" fill="#E4751F"/>
        <path d="M22.0918 21.4904L21.7227 23.9513L21.8868 30.1036L22.8028 25.4414L22.0918 21.4904Z" fill="#E4751F"/>
        <path d="M21.8866 30.1719L21.8809 30.1717C21.8461 30.1687 21.8192 30.1403 21.8183 30.1054L21.6543 23.9531L22.0241 21.4801C22.0291 21.447 22.0572 21.4225 22.0907 21.4219C22.1257 21.4184 22.153 21.4454 22.159 21.4782L22.8699 25.4293C22.8714 25.4376 22.8714 25.4463 22.8696 25.4546L21.9535 30.1167C21.9472 30.1491 21.919 30.1719 21.8865 30.1719H21.8866ZM22.0979 21.9103L21.7903 23.9613L21.9385 29.4854L22.7331 25.4409L22.0979 21.9103Z" fill="#E4751F"/>
        <path d="M22.8028 25.4414L21.8867 30.1036L22.543 30.5548L26.5351 27.4375L26.6719 24.3068L22.8028 25.4414Z" fill="#F6851B"/>
        <path d="M22.5431 30.6232C22.5297 30.6232 22.5162 30.6192 22.5044 30.6113L21.848 30.1602C21.8255 30.1447 21.8143 30.1175 21.8197 30.0906L22.7358 25.4284C22.7406 25.4035 22.7592 25.3832 22.7835 25.3761L26.6527 24.2414C26.6738 24.2352 26.6968 24.2396 26.714 24.2531C26.7314 24.2667 26.7411 24.2878 26.7402 24.3099L26.6034 27.4408C26.6024 27.4609 26.5929 27.4794 26.5771 27.4918L22.5851 30.609C22.5729 30.6185 22.5579 30.6234 22.5431 30.6234V30.6232ZM21.9625 30.0729L22.5407 30.4702L26.4684 27.4034L26.5995 24.3994L22.8619 25.4956L21.9625 30.0731V30.0729Z" fill="#F6851B"/>
        <path d="M13.3418 24.3069L13.4512 27.4376L17.4434 30.5549L18.0996 30.1037L17.1973 25.4416L13.3418 24.3069Z" fill="#F6851B"/>
        <path d="M17.4432 30.6233C17.4283 30.6233 17.4134 30.6184 17.4012 30.6089L13.409 27.4917C13.393 27.4792 13.3835 27.4604 13.3828 27.4402L13.2735 24.3093C13.2727 24.2872 13.2825 24.2663 13.2999 24.2527C13.3172 24.2394 13.34 24.2351 13.3611 24.2413L17.2165 25.376C17.241 25.3832 17.2594 25.4034 17.2643 25.4286L18.1666 30.0907C18.1719 30.1174 18.1607 30.1447 18.1382 30.1601L17.482 30.6112C17.4703 30.6192 17.4568 30.6232 17.4432 30.6232V30.6233ZM13.5182 27.4034L17.4458 30.4701L18.0238 30.0727L17.1379 25.4952L13.4133 24.3991L13.5183 27.4033L13.5182 27.4034Z" fill="#F6851B"/>
        <path d="M22.871 34.8478L22.9121 33.5764L22.5703 33.2756H17.416L17.1016 33.5764L17.1289 34.8478L12.8223 32.8107L14.3262 34.0412L17.375 36.1603H22.6114L25.6739 34.0412L27.1778 32.8107L22.871 34.8478Z" fill="#C0AD9E"/>
        <path d="M22.6116 36.2286H17.3752C17.3612 36.2286 17.3476 36.2243 17.3362 36.2164L14.2873 34.0973L12.779 32.8637C12.7522 32.8417 12.746 32.8035 12.7645 32.7741C12.7829 32.7451 12.8202 32.734 12.8516 32.749L17.0583 34.7387L17.0334 33.5778C17.033 33.5585 17.0407 33.5401 17.0545 33.5269L17.369 33.226C17.3818 33.2139 17.3986 33.2071 17.4163 33.2071H22.5705C22.5872 33.2071 22.6033 33.2131 22.6156 33.2242L22.9574 33.525C22.9728 33.5385 22.9814 33.5581 22.9807 33.5785L22.9433 34.7382L27.1487 32.749C27.18 32.7344 27.2172 32.7451 27.2358 32.7741C27.2542 32.8033 27.2479 32.8417 27.2212 32.8637L25.7173 34.0942L22.6505 36.2166C22.6392 36.2246 22.6256 36.2288 22.6116 36.2288V36.2286ZM17.3966 36.0919H22.5902L25.6351 33.9849L26.7032 33.1108L22.9005 34.9095C22.8788 34.9196 22.8536 34.9179 22.8337 34.9048C22.8138 34.8918 22.8022 34.8693 22.8029 34.8456L22.8429 33.6063L22.5447 33.3438H17.4436L17.1707 33.6048L17.1974 34.8463C17.1978 34.87 17.1861 34.8922 17.1661 34.9051C17.1463 34.9177 17.1213 34.9198 17.0998 34.9095L13.2973 33.1109L14.3695 33.9882L17.3966 36.0919Z" fill="#C0AD9E"/>
        <path d="M22.543 30.5547L21.8867 30.1035H18.0996L17.4434 30.5547L17.1016 33.5762L17.416 33.2755H22.5703L22.9121 33.5762L22.543 30.5547Z" fill="#161616"/>
        <path d="M17.1016 33.6445C17.0913 33.6445 17.0809 33.6422 17.0712 33.6373C17.0455 33.6245 17.0304 33.5969 17.0336 33.5683L17.3754 30.5468C17.3777 30.5272 17.3883 30.5094 17.4046 30.4982L18.0609 30.0471C18.0723 30.0392 18.0858 30.0352 18.0997 30.0352H21.8868C21.9007 30.0352 21.9141 30.0393 21.9256 30.0471L22.5819 30.4982C22.5981 30.5093 22.6086 30.5268 22.611 30.5463L22.98 33.5677C22.9835 33.5959 22.9692 33.6233 22.9441 33.6365C22.9192 33.6497 22.8882 33.6462 22.8671 33.6274L22.5447 33.3436H17.4435L17.149 33.6255C17.1359 33.6379 17.119 33.6445 17.1018 33.6445H17.1016ZM17.4161 33.207H22.5704C22.5871 33.207 22.6031 33.213 22.6155 33.2241L22.8225 33.4062L22.479 30.5935L21.8655 30.1719H18.1209L17.5079 30.5934L17.1907 33.3962L17.3688 33.2258C17.3816 33.2137 17.3984 33.2068 17.4161 33.2068V33.207Z" fill="#161616"/>
        <path d="M36.2696 14.5997L37.4316 9.02159L35.6953 3.83984L22.543 13.6016L27.6015 17.8809L34.7519 19.9727L36.3378 18.127L35.6542 17.6348L36.748 16.6368L35.9003 15.9805L36.9941 15.1466L36.2696 14.5997Z" fill="#763D16"/>
        <path d="M34.752 20.0411L34.7327 20.0383L27.5823 17.9465C27.5733 17.9438 27.5647 17.9392 27.5574 17.9332L22.4989 13.6539C22.483 13.6404 22.4741 13.6204 22.4746 13.5995C22.4753 13.5785 22.4854 13.5591 22.5022 13.5467L35.6546 3.78496C35.6719 3.77218 35.6949 3.76814 35.7157 3.77473C35.7367 3.78133 35.7531 3.79748 35.76 3.81808L37.4964 8.99983C37.5003 9.01127 37.5011 9.02379 37.4985 9.0355L36.3453 14.5713L37.0353 15.092C37.0524 15.1049 37.0625 15.1251 37.0625 15.1465C37.0625 15.1679 37.0527 15.188 37.0356 15.201L36.0126 15.981L36.7899 16.5828C36.8059 16.5952 36.8155 16.6139 36.8164 16.6341C36.8172 16.6543 36.809 16.6738 36.7941 16.6874L35.7625 17.6287L36.3777 18.0716C36.3933 18.0827 36.4033 18.1 36.4056 18.1189C36.4079 18.1381 36.4021 18.1572 36.3896 18.1717L34.8037 20.0174C34.7906 20.0328 34.7715 20.0412 34.7518 20.0412L34.752 20.0411ZM27.6347 17.8194L34.7288 19.8948L36.2374 18.1391L35.6143 17.6905C35.5976 17.6783 35.5872 17.6595 35.586 17.6389C35.5848 17.6183 35.593 17.5982 35.6082 17.5844L36.642 16.6411L35.8586 16.0346C35.8418 16.0215 35.832 16.0014 35.8321 15.9802C35.8322 15.9589 35.8421 15.939 35.859 15.9261L36.881 15.1468L36.2284 14.6542C36.2072 14.6382 36.1972 14.6117 36.2027 14.5857L37.3609 9.02567L35.6605 3.95095L22.653 13.6052L27.6347 17.8194Z" fill="#763D16"/>
        <path d="M2.56836 9.02159L3.73049 14.5997L2.99213 15.1466L4.08588 15.9805L3.25194 16.6368L4.34569 17.6348L3.66211 18.127L5.23442 19.9727L12.3848 17.8809L17.4434 13.6016L4.29103 3.83984L2.56836 9.02159Z" fill="#763D16"/>
        <path d="M5.23425 20.041C5.2146 20.041 5.19535 20.0326 5.18215 20.0169L3.60985 18.1712C3.59746 18.1567 3.59181 18.1376 3.59396 18.1186C3.59625 18.0996 3.60648 18.0825 3.62196 18.0714L4.23715 17.6285L3.2056 16.6872C3.19079 16.6738 3.18258 16.6544 3.18338 16.6342C3.18406 16.6141 3.19361 16.5954 3.20936 16.583L3.97398 15.9812L2.95036 15.2008C2.93327 15.1879 2.92331 15.1674 2.92344 15.1459C2.92358 15.1244 2.93381 15.1043 2.95104 15.0915L3.65413 14.5707L2.50142 9.03543C2.499 9.02372 2.49967 9.01134 2.50344 8.99989L4.22611 3.81815C4.23311 3.79742 4.24954 3.78113 4.2704 3.77467C4.29113 3.7678 4.31415 3.77184 4.33165 3.7849L17.4841 13.5468C17.5008 13.5592 17.511 13.5786 17.5117 13.5996C17.5124 13.6204 17.5035 13.6404 17.4875 13.654L12.4289 17.9332C12.4216 17.9394 12.4132 17.9439 12.404 17.9466L5.2535 20.0384L5.23425 20.0412V20.041ZM3.7621 18.1391L5.25754 19.8944L12.3515 17.8192L17.3332 13.6049L4.326 3.95101L2.639 9.02561L3.79736 14.5856C3.80288 14.6116 3.79265 14.6387 3.77125 14.6544L3.10598 15.1472L4.12744 15.926C4.14427 15.9388 4.15423 15.9587 4.15436 15.9798C4.1545 16.001 4.14494 16.0209 4.12825 16.0341L3.35758 16.6407L4.39183 17.5843C4.40704 17.5982 4.41525 17.6182 4.41404 17.6388C4.41283 17.6594 4.40246 17.6783 4.38577 17.6904L3.76236 18.1392L3.7621 18.1391Z" fill="#763D16"/>
        <path d="M34.7519 19.9726L27.6016 17.8809L29.7753 21.1485L26.5352 27.4375L30.8008 27.3828H37.1582L34.7519 19.9726Z" fill="#F6851B"/>
        <path d="M26.535 27.5059C26.5114 27.5059 26.4894 27.4936 26.477 27.4735C26.4644 27.453 26.4634 27.4276 26.4743 27.4061L29.6962 21.1529L27.5448 17.9187C27.5289 17.8946 27.5296 17.8634 27.5467 17.8404C27.5636 17.8171 27.5931 17.8071 27.6209 17.8153L34.7712 19.9071C34.7929 19.9135 34.8101 19.9301 34.817 19.9516L37.2232 27.3617C37.2301 27.3826 37.2265 27.4052 37.2135 27.423C37.2008 27.4407 37.1802 27.4511 37.1582 27.4511H30.8007L26.536 27.5059H26.535ZM27.7623 17.9991L29.8322 21.1105C29.8459 21.1312 29.8474 21.1576 29.8361 21.1798L26.6479 27.3676L30.7998 27.3143H37.064L34.6981 20.0279L27.7623 17.999V17.9991Z" fill="#F6851B"/>
        <path d="M12.3848 17.8809L5.23439 19.9726L2.85547 27.3828H9.19922L13.4512 27.4375L10.2246 21.1485L12.3848 17.8809Z" fill="#F6851B"/>
        <path d="M13.4512 27.5059H13.4503L9.19838 27.4511H2.85544C2.83364 27.4511 2.81304 27.4407 2.80025 27.4231C2.78733 27.4055 2.78369 27.3826 2.79043 27.3618L5.16935 19.9518C5.17635 19.9301 5.19344 19.9133 5.21525 19.9071L12.3657 17.8153C12.3935 17.8071 12.423 17.8172 12.4399 17.8402C12.4569 17.8632 12.4577 17.8946 12.4419 17.9184L10.3037 21.1528L13.512 27.4063C13.5229 27.4277 13.522 27.4531 13.5093 27.4736C13.4969 27.4936 13.4748 27.5059 13.4513 27.5059H13.4512ZM2.94914 27.3145H9.19919L13.3385 27.3678L10.1637 21.1798C10.1524 21.1577 10.1539 21.1314 10.1675 21.1108L12.2247 17.9989L5.28821 20.0281L2.94914 27.3145Z" fill="#F6851B"/>
        <path d="M22.0917 21.4904L22.5429 13.6017L24.621 7.98254H15.3926L17.4433 13.6017L17.9219 21.4904L18.0858 23.9786L18.0996 30.1036H21.8867L21.914 23.9786L22.0917 21.4904Z" fill="#F6851B"/>
        <path d="M21.8867 30.172H18.0996C18.0619 30.172 18.0313 30.1415 18.0312 30.1038L18.0174 23.9786L17.8536 21.4949L17.3757 13.6157L15.3284 8.00599C15.3207 7.98499 15.3238 7.96157 15.3366 7.9434C15.3494 7.92509 15.3702 7.91418 15.3926 7.91418H24.621C24.6435 7.91418 24.6642 7.92509 24.6771 7.9434C24.6899 7.96184 24.6929 7.98513 24.6852 8.00626L22.6108 13.6158L22.1601 21.4942V21.4951L21.9824 23.9834L21.9552 30.1039C21.9552 30.1416 21.9245 30.172 21.8868 30.172H21.8867ZM18.1678 30.0353H21.8186L21.8456 23.9782L22.0235 21.486L22.4747 13.5978L22.4789 13.5779L24.5229 8.05082H15.4903L17.5075 13.5781L17.5116 13.5975L17.9901 21.4862L18.1541 23.9741L18.1678 30.0354V30.0353Z" fill="#F6851B"/>
    </g>
    <defs>
        <clipPath id="clip0_301_6140">
            <rect width="35" height="32.4572" fill="white" transform="translate(2.5 3.77136)"/>
        </clipPath>
    </defs>
</svg>
