<svg width="616" height="313" viewBox="0 0 616 313" fill="none" xmlns="http://www.w3.org/2000/svg">
<rect y="0.5" width="616" height="312" rx="4" fill="#F5F5F3"/>
<path d="M21.26 17.28V18.74C19.1 18.94 17.04 20.24 17.04 22.54C17.04 24.78 18.66 26.08 20.82 26.68L21.26 26.8V32.22C19.88 32.04 18.58 31.02 18.54 28.9H16.66C16.62 31.56 18.5 33.5 21.26 33.74V35.44H22.36V33.74C24.94 33.58 27.1 32.22 27.1 29.52C27.1 26.76 24.86 25.9 22.66 25.3L22.36 25.22V20.26C23.66 20.42 24.84 21.22 24.88 23.28H26.76C26.8 20.64 25.08 18.94 22.36 18.74V17.28H21.26ZM25.22 29.8C25.22 31.36 23.88 32.14 22.36 32.24V27.1C24.12 27.58 25.22 28.1 25.22 29.8ZM18.92 22.52C18.92 21.04 20.08 20.32 21.26 20.24V24.94L21.24 24.92C19.68 24.46 18.92 23.72 18.92 22.52ZM37.9044 33.5V19H36.6644C35.8644 20.58 34.8044 20.84 32.7244 20.92V22.16H36.0844V33.5H37.9044ZM50.1477 26.24C50.1477 30.28 48.7277 32.24 46.4477 32.24C44.1677 32.24 42.7477 30.28 42.7477 26.24C42.7477 22.22 44.1677 20.26 46.4477 20.26C48.7277 20.26 50.1477 22.22 50.1477 26.24ZM52.0877 26.24C52.0877 21.66 50.3077 18.74 46.4477 18.74C42.5877 18.74 40.8077 21.66 40.8077 26.24C40.8077 30.84 42.5877 33.76 46.4477 33.76C50.3077 33.76 52.0877 30.84 52.0877 26.24ZM53.3742 33.5H54.3542L53.2942 36.28H54.4542L55.6742 33.66V31.2H53.3742V33.5ZM61.4005 33.5V19H60.1605C59.3605 20.58 58.3005 20.84 56.2205 20.92V22.16H59.5805V33.5H61.4005ZM69.3838 18.74C66.3038 18.74 64.3038 20.64 64.3438 23.52H66.2238C66.2638 21.12 67.7838 20.26 69.3438 20.26C71.0638 20.26 72.0638 21.28 72.0638 22.78C72.0638 25.34 69.0638 28.08 63.9438 31.86V33.5H74.3838V31.8H66.4238C70.4838 28.88 73.9838 25.9 73.9838 22.54C73.9838 20.1 72.0638 18.74 69.3838 18.74ZM84.2406 23.64C84.2406 25.62 82.9806 27.06 81.0806 27.06C79.2006 27.06 77.9206 25.62 77.9206 23.64C77.9206 21.66 79.2206 20.26 81.1006 20.26C83.0206 20.26 84.2406 21.64 84.2406 23.64ZM80.9006 32.24C79.4206 32.24 78.4406 31.44 78.2006 30.14H76.2206C76.5206 31.98 77.8606 33.76 80.7006 33.76C84.8806 33.76 86.3606 29.84 86.3606 25.74C86.3606 21.26 84.7006 18.74 81.0806 18.74C77.9806 18.74 75.9806 21.04 75.9806 23.72C75.9806 26.64 77.9606 28.66 80.6406 28.66C82.5606 28.66 83.8206 27.78 84.4806 26.64C84.3806 30 83.1406 32.24 80.9006 32.24ZM87.7492 33.5H88.7292L87.6692 36.28H88.8292L90.0492 33.66V31.2H87.7492V33.5ZM97.5869 18.74C94.5069 18.74 92.5069 20.64 92.5469 23.52H94.4269C94.4669 21.12 95.9869 20.26 97.5469 20.26C99.2669 20.26 100.267 21.28 100.267 22.78C100.267 25.34 97.2669 28.08 92.1469 31.86V33.5H102.587V31.8H94.6269C98.6869 28.88 102.187 25.9 102.187 22.54C102.187 20.1 100.267 18.74 97.5869 18.74ZM109.604 18.74C106.624 18.74 104.764 20.3 104.764 22.44C104.764 23.62 105.324 25 106.764 25.78C104.864 26.54 104.304 28.1 104.304 29.42C104.304 32.18 106.604 33.76 109.604 33.76C112.584 33.76 114.884 32.18 114.884 29.42C114.884 28.1 114.324 26.54 112.444 25.78C113.884 25 114.444 23.62 114.444 22.44C114.444 20.3 112.564 18.74 109.604 18.74ZM109.604 26.54C111.644 26.54 112.964 27.72 112.964 29.42C112.964 31.12 111.644 32.24 109.604 32.24C107.544 32.24 106.244 31.12 106.244 29.42C106.244 27.72 107.544 26.54 109.604 26.54ZM112.604 22.66C112.604 24.12 111.404 25.2 109.604 25.2C107.784 25.2 106.584 24.12 106.584 22.66C106.584 21.22 107.784 20.26 109.604 20.26C111.404 20.26 112.604 21.22 112.604 22.66ZM123.403 21.5V28.2H118.223L123.403 21.5ZM127.903 28.2H125.243V19H123.383L116.203 28.2V29.92H123.403V33.5H125.243V29.92H127.903V28.2ZM131.748 33.5V31.2H129.448V33.5H131.748ZM137.475 33.5V19H136.235C135.435 20.58 134.375 20.84 132.295 20.92V22.16H135.655V33.5H137.475ZM145.058 32.24C143.018 32.24 141.958 31 141.758 29.22H139.878C140.078 31.64 141.638 33.76 145.038 33.76C147.798 33.76 150.278 32.34 150.278 29.42C150.278 27.9 149.678 26.46 147.518 25.78C149.038 25.16 149.878 23.9 149.878 22.42C149.878 19.74 147.698 18.74 145.178 18.74C142.138 18.74 140.318 20.52 140.098 23.08H141.978C142.138 21.44 143.198 20.26 145.138 20.26C146.678 20.26 147.958 21.06 147.958 22.62C147.958 24.32 146.618 25.02 144.098 25.02H143.858V26.68H144.158C146.478 26.68 148.338 27.36 148.338 29.44C148.338 31.24 146.978 32.24 145.058 32.24Z" fill="#1E1E19"/>
<path d="M21.952 53.5L24.352 45.916V53.5H25.576V44.8H23.524L21.304 52.048L19.084 44.8H17.032V53.5H18.256V45.916L20.656 53.5H21.952ZM31.5375 50.8C31.5375 52.324 30.5655 52.792 29.5455 52.792C28.7655 52.792 28.2975 52.384 28.2975 51.772C28.2975 50.884 29.5575 50.596 31.5375 50.392V50.8ZM29.3055 53.656C30.4455 53.656 31.1175 53.272 31.5135 52.612C31.5255 52.996 31.5615 53.26 31.5975 53.5H32.7015C32.5815 52.888 32.5215 52.144 32.5335 51.064L32.5455 49.576C32.5575 47.764 31.7535 46.912 29.9775 46.912C28.7175 46.912 27.4935 47.692 27.3855 49.084H28.5135C28.5615 48.292 29.0895 47.8 29.9895 47.8C30.7935 47.8 31.4535 48.196 31.4535 49.372V49.528C28.8015 49.828 27.0855 50.272 27.0855 51.796C27.0855 52.984 28.0935 53.656 29.3055 53.656ZM37.702 47.044L36.106 52.024L34.462 47.044H33.25L35.578 53.5L35.53 53.632C35.242 54.64 34.894 54.688 34.174 54.688H33.73V55.6H34.294C35.734 55.6 36.07 55.18 36.538 53.776L38.842 47.044H37.702ZM44.9395 53.5V44.8H44.1955C43.7155 45.748 43.0795 45.904 41.8315 45.952V46.696H43.8475V53.5H44.9395ZM49.4895 52.744C48.2655 52.744 47.6295 52 47.5095 50.932H46.3815C46.5015 52.384 47.4375 53.656 49.4775 53.656C51.1335 53.656 52.6215 52.804 52.6215 51.052C52.6215 50.14 52.2615 49.276 50.9655 48.868C51.8775 48.496 52.3815 47.74 52.3815 46.852C52.3815 45.244 51.0735 44.644 49.5615 44.644C47.7375 44.644 46.6455 45.712 46.5135 47.248H47.6415C47.7375 46.264 48.3735 45.556 49.5375 45.556C50.4615 45.556 51.2295 46.036 51.2295 46.972C51.2295 47.992 50.4255 48.412 48.9135 48.412H48.7695V49.408H48.9495C50.3415 49.408 51.4575 49.816 51.4575 51.064C51.4575 52.144 50.6415 52.744 49.4895 52.744ZM53.6941 53.5H54.2821L53.6461 55.168H54.3421L55.0741 53.596V52.12H53.6941V53.5ZM62.3271 44.644C60.4791 44.644 59.2791 45.784 59.3031 47.512H60.4311C60.4551 46.072 61.3671 45.556 62.3031 45.556C63.3351 45.556 63.9351 46.168 63.9351 47.068C63.9351 48.604 62.1351 50.248 59.0631 52.516V53.5H65.3271V52.48H60.5511C62.9871 50.728 65.0871 48.94 65.0871 46.924C65.0871 45.46 63.9351 44.644 62.3271 44.644ZM71.9613 49.144C71.9613 51.568 71.1093 52.744 69.7413 52.744C68.3733 52.744 67.5213 51.568 67.5213 49.144C67.5213 46.732 68.3733 45.556 69.7413 45.556C71.1093 45.556 71.9613 46.732 71.9613 49.144ZM73.1253 49.144C73.1253 46.396 72.0573 44.644 69.7413 44.644C67.4253 44.644 66.3573 46.396 66.3573 49.144C66.3573 51.904 67.4253 53.656 69.7413 53.656C72.0573 53.656 73.1253 51.904 73.1253 49.144ZM77.3388 44.644C75.4908 44.644 74.2908 45.784 74.3148 47.512H75.4428C75.4668 46.072 76.3788 45.556 77.3148 45.556C78.3468 45.556 78.9468 46.168 78.9468 47.068C78.9468 48.604 77.1468 50.248 74.0748 52.516V53.5H80.3388V52.48H75.5628C77.9988 50.728 80.0988 48.94 80.0988 46.924C80.0988 45.46 78.9468 44.644 77.3388 44.644ZM84.417 44.644C82.569 44.644 81.369 45.784 81.393 47.512H82.521C82.545 46.072 83.457 45.556 84.393 45.556C85.425 45.556 86.025 46.168 86.025 47.068C86.025 48.604 84.225 50.248 81.153 52.516V53.5H87.417V52.48H82.641C85.077 50.728 87.177 48.94 87.177 46.924C87.177 45.46 86.025 44.644 84.417 44.644Z" fill="#A0A09B"/>
<path d="M451.132 22.8L454.12 31.5H455.584L458.536 22.8H457.252L454.888 30.24L452.476 22.8H451.132ZM459.721 28.296C459.721 26.532 460.669 25.896 461.653 25.896C462.637 25.896 463.585 26.58 463.585 28.296C463.585 29.952 462.637 30.696 461.653 30.696C460.669 30.696 459.721 30.012 459.721 28.296ZM461.653 24.936C460.153 24.936 458.557 25.956 458.557 28.296C458.557 30.636 460.153 31.656 461.653 31.656C463.153 31.656 464.749 30.636 464.749 28.296C464.749 25.956 463.153 24.936 461.653 24.936ZM467.147 22.8H466.055V31.5H467.147V22.8ZM472.876 31.5H473.968V25.044H472.876V28.596C472.876 29.976 472.264 30.708 471.232 30.708C470.044 30.708 469.876 29.844 469.876 28.848V25.044H468.784V29.172C468.784 30.648 469.348 31.656 470.848 31.656C471.916 31.656 472.504 31.188 472.876 30.576V31.5ZM476.792 27.996C476.792 26.616 477.416 25.884 478.352 25.884C479.54 25.884 479.732 26.748 479.732 27.744V31.5H480.824V27.996C480.824 26.616 481.448 25.884 482.384 25.884C483.572 25.884 483.764 26.748 483.764 27.744V31.5H484.856V27.42C484.856 25.944 484.268 24.936 482.768 24.936C481.868 24.936 481.112 25.284 480.596 26.076C480.308 25.368 479.72 24.936 478.736 24.936C477.764 24.936 477.164 25.404 476.792 26.016V25.044H475.7V31.5H476.792V27.996ZM492.193 28.632C492.337 26.592 491.149 24.936 489.181 24.936C487.417 24.936 486.049 26.244 486.049 28.284C486.049 30.192 487.177 31.656 489.217 31.656C490.789 31.656 491.809 30.744 492.109 29.628H490.981C490.705 30.264 490.177 30.696 489.217 30.696C488.257 30.696 487.273 30.024 487.225 28.632H492.193ZM489.181 25.872C490.333 25.872 491.017 26.784 491.041 27.696H487.237C487.333 26.4 488.209 25.872 489.181 25.872Z" fill="#A0A09B"/>
<path d="M519.832 31.5H521.056V23.856H523.888V22.8H517V23.856H519.832V31.5ZM524.198 22.8L527.186 31.5H528.65L531.602 22.8H530.318L527.954 30.24L525.542 22.8H524.198ZM533.975 22.8H532.751V31.5H538.571V30.444H533.975V22.8Z" fill="#1E1E19"/>
<rect x="509.5" y="17" width="37" height="21" rx="3.5" stroke="#1E1E19"/>
<path d="M564.032 22.8V31.5H565.256V28.056H566.756C568.88 28.056 570.368 27.588 570.368 25.428C570.368 23.28 568.88 22.8 566.756 22.8H564.032ZM566.852 23.832C568.124 23.832 569.12 24.012 569.12 25.428C569.12 26.856 568.124 26.988 566.852 26.988H565.256V23.832H566.852ZM574.592 25.02C574.472 25.008 574.376 25.008 574.268 25.008C573.428 25.032 572.768 25.44 572.444 26.172V25.044H571.376V31.5H572.468V28.116C572.468 26.7 572.972 26.136 573.98 26.136C574.16 26.136 574.364 26.16 574.592 26.184V25.02ZM575.641 25.044V31.5H576.733V25.044H575.641ZM575.641 22.8V24.12H576.733V22.8H575.641ZM581.142 24.936C579.234 24.936 578.022 26.364 578.022 28.284C578.022 30.252 579.186 31.656 581.034 31.656C582.534 31.656 583.698 30.612 583.914 29.4H582.786C582.63 30.084 581.982 30.696 581.07 30.696C580.11 30.696 579.21 29.916 579.21 28.272C579.21 26.652 580.098 25.896 581.07 25.896C581.91 25.896 582.582 26.436 582.738 27.204H583.842C583.698 26.112 582.702 24.936 581.142 24.936ZM590.904 28.632C591.048 26.592 589.86 24.936 587.892 24.936C586.128 24.936 584.76 26.244 584.76 28.284C584.76 30.192 585.888 31.656 587.928 31.656C589.5 31.656 590.52 30.744 590.82 29.628H589.692C589.416 30.264 588.888 30.696 587.928 30.696C586.968 30.696 585.984 30.024 585.936 28.632H590.904ZM587.892 25.872C589.044 25.872 589.728 26.784 589.752 27.696H585.948C586.044 26.4 586.92 25.872 587.892 25.872Z" fill="#A0A09B"/>
<path d="M16 274.5C16.5205 272.266 17.041 270.033 17.5615 268.114C18.082 266.195 18.6025 264.277 19.123 262.987C19.6435 261.696 20.164 261.452 20.6845 260.37C21.205 259.289 21.7255 256.87 22.246 256.497C22.7665 256.124 23.287 255.938 23.8075 255.938C24.328 255.938 24.8485 256.676 25.369 256.676C25.8895 256.676 26.41 254.409 26.9305 254.409C27.451 254.409 27.9715 258.61 28.492 258.61C29.0125 258.61 29.533 257.702 30.0535 255.888C30.574 254.073 31.0945 245.468 31.615 245.468C32.1355 245.468 32.6559 248.371 33.1765 249.282C33.697 250.193 34.2174 250.692 34.738 250.935C35.2585 251.179 35.7789 251.3 36.2995 251.3C36.82 251.3 37.3404 245.872 37.861 245.872C38.3815 245.872 38.9019 250.103 39.4225 250.103C39.943 250.103 40.4634 238.003 40.984 237.724C41.5045 237.445 42.0249 237.305 42.5455 237.305C43.066 237.305 43.5864 237.741 44.107 237.903C44.6275 238.066 45.1479 238.28 45.6685 238.28C46.189 238.28 46.7094 221.88 47.23 216.534C47.7505 211.189 48.2709 210.443 48.7914 206.208C49.312 201.973 49.8324 191.124 50.3529 191.124C50.8735 191.124 51.3939 206.999 51.9144 211.126C52.435 215.253 52.9554 215.341 53.4759 217.316C53.9965 219.291 54.5169 222.976 55.0374 222.976C55.558 222.976 56.0784 217.519 56.5989 212.377C57.1195 207.234 57.6399 192.121 58.1604 192.121C58.681 192.121 59.2014 192.29 59.7219 192.29C60.2425 192.29 60.7629 189.977 61.2834 189.097C61.804 188.217 62.3244 187.008 62.8449 187.008C63.3654 187.008 63.8859 193.215 64.4064 195.305C64.9269 197.395 65.4474 199.549 65.9679 199.549C66.4884 199.549 67.0089 194.36 67.5294 194.36C68.0499 194.36 68.5704 201.558 69.0909 202.045C69.6114 202.532 70.1319 202.776 70.6524 202.776C71.1729 202.776 71.6934 193.905 72.2139 193.905C72.7344 193.905 73.2549 200.507 73.7754 203.498C74.2959 206.49 74.8164 211.499 75.3369 211.856C75.8574 212.212 76.3779 212.391 76.8984 212.391C77.4189 212.391 77.9394 202.549 78.4599 199.632C78.9804 196.714 79.5009 194.887 80.0214 194.887C80.5419 194.887 81.0624 195.873 81.5829 197.845C82.1034 199.816 82.6239 211.091 83.1444 211.091C83.6649 211.091 84.1854 208.915 84.7059 208.915C85.2264 208.915 85.7469 213.363 86.2674 215.143C86.7879 216.923 87.3084 219.596 87.8289 219.596C88.3494 219.596 88.8699 212.065 89.3904 212.065C89.9109 212.065 90.4314 228.727 90.9519 228.727C91.4724 228.727 91.9929 226.153 92.5134 224.931C93.0339 223.71 93.5544 221.398 94.0749 221.398C94.5954 221.398 95.1158 223.128 95.6364 224.186C96.1569 225.244 96.6773 227.748 97.1979 227.748C97.7184 227.748 98.2388 226.728 98.7594 224.686C99.2799 222.645 99.8003 213.529 100.321 212.98C100.841 212.431 101.362 212.705 101.882 212.156C102.403 211.607 102.923 210.087 103.444 209.04C103.964 207.992 104.485 205.873 105.005 205.873C105.526 205.873 106.046 214.243 106.567 214.243C107.087 214.243 107.608 211.807 108.128 210.803C108.649 209.8 109.169 208.388 109.69 208.221C110.21 208.053 110.731 207.97 111.251 207.97C111.772 207.97 112.292 215.59 112.813 215.59C113.333 215.59 113.854 210.757 114.374 210.757C114.895 210.757 115.415 210.803 115.936 210.894C116.456 210.985 116.977 218.138 117.497 218.138C118.018 218.138 118.538 217.672 119.059 217.672C119.579 217.672 120.1 219.384 120.62 219.384C121.141 219.384 121.661 213.519 122.182 213.519C122.702 213.519 123.223 220.393 123.743 222.55C124.264 224.706 124.784 226.458 125.305 226.458C125.825 226.458 126.346 220.663 126.866 220.663C127.387 220.663 127.907 224.914 128.428 224.914C128.948 224.914 129.469 223.415 129.989 222.73C130.51 222.045 131.03 220.805 131.551 220.805C132.071 220.805 132.592 220.814 133.112 220.833C133.633 220.852 134.153 223.254 134.674 224.037C135.194 224.82 135.715 225.533 136.235 225.533C136.756 225.533 137.276 219.199 137.797 216.776C138.317 214.353 138.838 213.18 139.358 210.997C139.879 208.813 140.399 205.065 140.92 203.675C141.44 202.285 141.961 202.481 142.481 201.589C143.002 200.698 143.522 198.323 144.043 198.323C144.563 198.323 145.084 201.583 145.604 201.583C146.125 201.583 146.645 195.151 147.166 194.07C147.686 192.988 148.207 193.448 148.727 192.447C149.248 191.446 149.768 189.92 150.289 188.065C150.809 186.21 151.33 181.318 151.85 181.318C152.371 181.318 152.891 181.607 153.412 182.184C153.932 182.762 154.453 186.719 154.973 187.574C155.494 188.43 156.014 188.002 156.535 188.857C157.055 189.713 157.576 197.931 158.096 197.931C158.617 197.931 159.137 188.444 159.658 185.559C160.178 182.674 160.699 182.293 161.219 180.62C161.74 178.947 162.26 178.09 162.781 175.522C163.301 172.954 163.822 165.212 164.342 165.212C164.863 165.212 165.383 170.234 165.904 170.99C166.424 171.746 166.945 171.673 167.465 172.124C167.986 172.575 168.506 173.696 169.027 173.696C169.547 173.696 170.068 171.893 170.588 171.893C171.109 171.893 171.629 177.315 172.15 177.315C172.67 177.315 173.191 163.647 173.711 163.647C174.232 163.647 174.752 167.613 175.273 167.613C175.793 167.613 176.314 165.108 176.834 165.108C177.355 165.108 177.875 170.824 178.396 173.606C178.916 176.388 179.437 181.801 179.957 181.801C180.478 181.801 180.998 181.445 181.519 180.732C182.039 180.018 182.56 173.92 183.08 172.477C183.601 171.034 184.121 170.312 184.642 170.312C185.162 170.312 185.683 176.062 186.203 176.062C186.724 176.062 187.244 173.989 187.765 173.071C188.285 172.154 188.806 170.556 189.326 170.556C189.847 170.556 190.367 177.098 190.888 177.098C191.408 177.098 191.929 173.798 192.449 173.798C192.97 173.798 193.49 182.912 194.011 182.912C194.531 182.912 195.052 170.989 195.572 170.989C196.093 170.989 196.613 172.48 197.134 173C197.654 173.52 198.175 173.743 198.695 174.109C199.216 174.476 199.736 175.198 200.257 175.198C200.777 175.198 201.298 168.943 201.818 167.695C202.339 166.446 202.859 165.822 203.38 165.822C203.9 165.822 204.421 166.742 204.941 168.581C205.462 170.421 205.982 174.975 206.503 176.916C207.023 178.856 207.544 180.224 208.064 180.224C208.585 180.224 209.105 175.384 209.626 175.384C210.146 175.384 210.667 176.522 211.187 178.797C211.708 181.072 212.228 196.886 212.749 196.886C213.269 196.886 213.79 195.521 214.31 195.129C214.831 194.737 215.351 194.534 215.872 194.534C216.392 194.534 216.913 202.159 217.433 202.159C217.954 202.159 218.474 200.219 218.995 199.309C219.515 198.4 220.036 196.701 220.556 196.701C221.077 196.701 221.597 200.697 222.118 200.697C222.638 200.697 223.159 197.472 223.679 195.967C224.2 194.462 224.72 192.199 225.241 191.668C225.761 191.136 226.282 190.87 226.802 190.87C227.323 190.87 227.843 196.375 228.364 196.375C228.884 196.375 229.405 194.66 229.925 194.66C230.446 194.66 230.966 195.843 231.487 198.207C232.007 200.571 232.528 207.506 233.048 210.288C233.569 213.069 234.089 214.894 234.61 214.894C235.13 214.894 235.651 206.035 236.171 203.323C236.692 200.611 237.212 198.623 237.733 198.623C238.253 198.623 238.774 203.902 239.294 203.902C239.815 203.902 240.335 203.278 240.856 202.515C241.376 201.751 241.897 199.322 242.417 199.322C242.938 199.322 243.458 201.243 243.979 202.302C244.499 203.36 245.02 205.673 245.54 205.673C246.061 205.673 246.581 205.607 247.102 205.476C247.622 205.345 248.143 203.17 248.663 200.118C249.184 197.065 249.704 188.268 250.225 187.159C250.745 186.05 251.266 185.496 251.786 185.496C252.307 185.496 252.827 186.357 253.348 186.919C253.868 187.48 254.389 188.863 254.909 188.863C255.43 188.863 255.95 184.808 256.471 182.996C256.991 181.184 257.512 178.425 258.032 177.99C258.553 177.555 259.073 177.337 259.594 177.337C260.114 177.337 260.635 180.766 261.155 180.766C261.676 180.766 262.196 179.545 262.717 179.545C263.237 179.545 263.758 188.3 264.278 188.3C264.799 188.3 265.319 181.615 265.84 181.615C266.36 181.615 266.881 185.125 267.401 185.125C267.922 185.125 268.442 179.232 268.963 177.478C269.483 175.723 270.004 174.924 270.524 174.6C271.045 174.275 271.565 174.112 272.086 174.112C272.606 174.112 273.127 182.772 273.647 182.772C274.168 182.772 274.688 181.25 275.209 181.25C275.729 181.25 276.25 184.638 276.77 184.638C277.291 184.638 277.811 181.721 278.332 178.388C278.852 175.055 279.373 164.64 279.893 164.64C280.414 164.64 280.934 177.794 281.455 180.736C281.975 183.679 282.496 185.151 283.016 185.151C283.537 185.151 284.057 172.069 284.578 172.069C285.098 172.069 285.619 176.432 286.139 176.432C286.66 176.432 287.18 171.948 287.701 171.948C288.221 171.948 288.742 173.63 289.262 175.991C289.783 178.352 290.303 186.116 290.824 186.116C291.344 186.116 291.865 169.749 292.385 166.588C292.906 163.426 293.426 161.845 293.947 161.845C294.467 161.845 294.988 170.549 295.508 171.657C296.028 172.764 296.549 173.318 297.07 173.318C297.59 173.318 298.111 172.952 298.631 172.219C299.152 171.487 299.672 158.556 300.193 158.192C300.713 157.828 301.234 157.646 301.754 157.646C302.275 157.646 302.795 164.729 303.316 164.729C303.836 164.729 304.357 163.27 304.877 162.241C305.398 161.212 305.918 161 306.439 158.555C306.959 156.109 307.48 151.566 308 147.566C308.521 143.566 309.041 134.554 309.562 134.554C310.082 134.554 310.603 139.545 311.123 142.886C311.643 146.226 312.164 154.597 312.685 154.597C313.205 154.597 313.725 146.855 314.246 146.855C314.767 146.855 315.287 153.6 315.808 154.086C316.328 154.571 316.848 154.688 317.369 154.814C317.889 154.94 318.41 154.877 318.931 155.002C319.451 155.128 319.971 157.587 320.492 161.921C321.013 166.255 321.533 181.005 322.054 181.005C322.574 181.005 323.094 160.434 323.615 160.434C324.136 160.434 324.656 171.705 325.176 171.705C325.697 171.705 326.217 151.696 326.738 145.918C327.259 140.14 327.779 137.036 328.299 137.036C328.82 137.036 329.34 141.076 329.861 143.584C330.382 146.093 330.902 152.087 331.422 152.087C331.943 152.087 332.463 141.874 332.984 141.874C333.505 141.874 334.025 147.313 334.545 147.313C335.066 147.313 335.586 124.411 336.107 124.411C336.627 124.411 337.148 156.929 337.668 156.929C338.189 156.929 338.709 152.516 339.23 148.893C339.75 145.271 340.271 140.973 340.791 135.191C341.312 129.41 341.832 118.32 342.353 114.204C342.873 110.088 343.394 108.217 343.914 108.031C344.435 107.844 344.955 107.751 345.476 107.751C345.996 107.751 346.517 109.801 347.037 113.9C347.558 118 348.078 132.61 348.599 132.61C349.119 132.61 349.64 129.823 350.16 128.739C350.681 127.654 351.201 127.86 351.722 126.101C352.242 124.343 352.763 107.32 353.283 107.32C353.804 107.32 354.324 110.202 354.845 110.202C355.365 110.202 355.886 104.283 356.406 104.283C356.927 104.283 357.447 118.799 357.968 125.112C358.488 131.425 359.009 142.162 359.529 142.162C360.05 142.162 360.57 132.695 361.091 129.148C361.611 125.6 362.132 120.876 362.652 120.876C363.173 120.876 363.693 144.437 364.214 144.437C364.734 144.437 365.255 137.541 365.775 133.513C366.296 129.485 366.816 120.27 367.337 120.27C367.857 120.27 368.378 122.392 368.898 125.561C369.419 128.731 369.939 139.287 370.46 139.287C370.98 139.287 371.501 120.628 372.021 119.397C372.542 118.166 373.062 118.399 373.583 117.551C374.103 116.703 374.624 116.47 375.144 114.309C375.665 112.148 376.185 101.797 376.706 101.797C377.226 101.797 377.747 109.662 378.267 109.662C378.788 109.662 379.308 103.681 379.829 103.681C380.349 103.681 380.87 118.225 381.39 118.225C381.911 118.225 382.431 113.355 382.952 113.355C383.472 113.355 383.993 115.824 384.513 116.853C385.034 117.882 385.554 117.745 386.075 119.53C386.595 121.315 387.116 141.72 387.636 149.26C388.157 156.799 388.677 164.768 389.198 164.768C389.718 164.768 390.239 163.751 390.759 163.751C391.28 163.751 391.8 165.691 392.321 165.691C392.841 165.691 393.362 160.706 393.882 157.895C394.403 155.084 394.923 148.826 395.444 148.826C395.964 148.826 396.485 155.149 397.005 155.149C397.526 155.149 398.046 153.37 398.567 153.37C399.087 153.37 399.608 161.172 400.128 163.503C400.649 165.833 401.169 166.396 401.69 167.356C402.21 168.316 402.731 169.263 403.251 169.263C403.772 169.263 404.292 165.744 404.813 163.884C405.333 162.024 405.854 158.104 406.374 158.104C406.895 158.104 407.415 163.668 407.936 163.668C408.456 163.668 408.977 147.845 409.497 147.845C410.018 147.845 410.538 149.292 411.059 152.162C411.579 155.033 412.1 165.067 412.62 165.067C413.141 165.067 413.661 157.839 414.182 157.241C414.702 156.643 415.223 156.683 415.743 156.344C416.264 156.004 416.784 155.203 417.305 155.203C417.825 155.203 418.346 164.033 418.866 164.033C419.387 164.033 419.907 157.407 420.428 156.069C420.948 154.73 421.469 154.06 421.989 154.06C422.51 154.06 423.03 160.505 423.551 162.6C424.071 164.695 424.592 163.949 425.112 166.63C425.633 169.311 426.153 178.686 426.674 178.686C427.194 178.686 427.715 167.155 428.235 163.309C428.756 159.464 429.276 158.798 429.797 155.613C430.317 152.427 430.838 144.246 431.358 144.198C431.879 144.151 432.399 144.127 432.92 144.127C433.44 144.127 433.961 151.86 434.481 151.86C435.002 151.86 435.522 148.105 436.043 144.156C436.563 140.207 437.084 131.999 437.604 128.166C438.125 124.333 438.645 124.403 439.166 121.159C439.686 117.914 440.207 111.673 440.727 108.701C441.248 105.73 441.768 103.329 442.289 103.329C442.809 103.329 443.33 108.637 443.85 108.637C444.371 108.637 444.891 107.282 445.412 106.049C445.932 104.816 446.453 103.458 446.973 101.239C447.494 99.0204 448.014 95.1997 448.535 92.7364C449.055 90.273 449.576 88.3237 450.096 86.459C450.617 84.5943 451.137 81.5481 451.658 81.5481C452.178 81.5481 452.699 87.7145 453.219 87.7145C453.74 87.7145 454.26 76.2842 454.781 76.2842C455.301 76.2842 455.822 80.2752 456.342 83.1586C456.863 86.0421 457.383 93.5849 457.904 93.5849C458.424 93.5849 458.945 92.6958 459.465 92.6958C459.986 92.6958 460.506 95.4347 461.027 95.4347C461.547 95.4347 462.068 93.2128 462.588 88.7689C463.109 84.3251 463.629 68.5 464.15 68.5C464.67 68.5 465.191 72.7331 465.711 75.8001C466.232 78.8671 466.752 83.8196 467.273 86.902C467.793 89.9845 468.314 92.2257 468.834 94.2948C469.355 96.3638 469.875 97.4083 470.396 99.3164C470.916 101.224 471.437 104.358 471.957 105.743C472.478 107.128 472.998 107.82 473.519 107.82C474.039 107.82 474.56 104.92 475.08 104.92C475.601 104.92 476.121 105.013 476.642 105.199C477.162 105.384 477.683 108.781 478.203 108.781C478.724 108.781 479.244 101.602 479.765 101.602C480.285 101.602 480.806 104.89 481.326 108.406C481.847 111.922 482.367 122.699 482.888 122.699C483.408 122.699 483.929 102.762 484.449 102.762C484.97 102.762 485.49 103.419 486.011 103.583C486.531 103.747 487.052 103.665 487.572 103.829C488.093 103.993 488.613 105.214 489.134 107.985C489.654 110.756 490.175 120.8 490.695 120.8C491.216 120.8 491.736 117.479 492.257 117.479C492.777 117.479 493.298 123.589 493.818 125.736C494.339 127.883 494.859 130.363 495.38 130.363C495.9 130.363 496.421 118.353 496.941 112.584C497.462 106.815 497.982 95.7483 498.503 95.7483C499.023 95.7483 499.544 101.141 500.064 103.739C500.585 106.336 501.105 109.734 501.626 111.332C502.146 112.93 502.667 113.728 503.187 113.728C503.708 113.728 504.228 113.658 504.749 113.517C505.269 113.375 505.79 105.868 506.31 105.868C506.831 105.868 507.351 108.659 507.872 108.659C508.392 108.659 508.913 103.875 509.433 102.874C509.954 101.873 510.474 102.373 510.995 101.372C511.515 100.371 512.036 92.3566 512.556 91.6882C513.077 91.0199 513.597 90.6856 514.118 90.6856C514.638 90.6856 515.159 96.8075 515.679 99.9062C516.2 103.005 516.72 109.278 517.241 109.278C517.761 109.278 518.282 100.694 518.802 100.694C519.323 100.694 519.843 109.675 520.364 109.675C520.884 109.675 521.405 93.9922 521.925 93.9922C522.446 93.9922 522.966 104.966 523.487 104.966C524.007 104.966 524.528 102.755 525.048 100.556C525.569 98.3573 526.089 91.772 526.61 91.772C527.13 91.772 527.651 97.6185 528.171 97.6185C528.692 97.6185 529.212 93.6863 529.733 93.6863C530.253 93.6863 530.774 94.9839 531.294 97.5791C531.815 100.174 532.335 111.862 532.856 111.862C533.376 111.862 533.897 95.6955 534.417 95.6955C534.938 95.6955 535.458 100.023 535.979 100.023C536.499 100.023 537.02 97.2769 537.54 97.2769C538.061 97.2769 538.581 97.7348 539.102 98.6506C539.622 99.5665 540.143 100.533 540.663 104.297C541.184 108.061 541.704 121.907 542.225 121.907C542.745 121.907 543.266 115.532 543.786 115.532C544.307 115.532 544.827 116.695 545.348 116.695C545.868 116.695 546.389 108.116 546.909 108.116C547.43 108.116 547.95 112.21 548.471 116.184C548.991 120.157 549.512 131.956 550.032 131.956C550.553 131.956 551.073 129.58 551.594 126.667C552.114 123.755 552.635 114.482 553.155 114.482C553.676 114.482 554.196 123.766 554.717 123.766C555.237 123.766 555.758 120.039 556.278 119.711C556.799 119.384 557.319 119.22 557.84 119.22C558.36 119.22 558.881 126.301 559.401 126.301C559.922 126.301 560.442 121.178 560.963 119.502C561.483 117.826 562.004 116.243 562.524 116.243C563.045 116.243 563.565 117.105 564.086 118.828C564.606 120.552 565.127 125.894 565.647 128.459C566.168 131.024 566.688 132.813 567.209 134.219C567.729 135.625 568.25 136.894 568.77 136.894C569.291 136.894 569.811 136.511 570.332 135.746C570.852 134.98 571.373 131.313 571.893 131.313C572.414 131.313 572.934 141.123 573.455 141.123C573.975 141.123 574.496 136.886 575.016 135.057C575.537 133.227 576.057 130.143 576.578 130.143C577.098 130.143 577.619 136.807 578.139 138.976C578.66 141.144 579.18 143.153 579.701 143.153C580.221 143.153 580.742 137.895 581.262 136.244C581.783 134.592 582.303 133.242 582.824 133.242C583.344 133.242 583.865 141.861 584.385 141.861C584.906 141.861 585.426 122.876 585.947 122.876C586.467 122.876 586.988 135.876 587.508 136.944C588.028 138.012 588.549 137.478 589.07 138.546C589.59 139.613 590.111 141.878 590.631 143.494C591.152 145.111 591.672 146.519 592.193 148.245C592.713 149.971 593.233 153.853 593.754 153.853C594.275 153.853 594.795 153.108 595.316 153.108C595.836 153.108 596.357 178.388 596.877 178.388C597.398 178.388 597.918 171.735 598.439 168.917C598.959 166.099 599.479 163.789 600 161.479" stroke="#A0A09B" stroke-width="1.5"/>
<line x1="176.989" y1="68.5" x2="176.989" y2="274.5" stroke="#BEFA3C"/>
<path d="M176.96 170.031C178.893 170.031 180.46 168.464 180.46 166.531C180.46 164.598 178.893 163.031 176.96 163.031C175.027 163.031 173.46 164.598 173.46 166.531C173.46 168.464 175.027 170.031 176.96 170.031Z" fill="#BEFA3C" stroke="#1E1E19"/>
<path d="M22.18 291.144C22.18 293.568 21.328 294.744 19.96 294.744C18.592 294.744 17.74 293.568 17.74 291.144C17.74 288.732 18.592 287.556 19.96 287.556C21.328 287.556 22.18 288.732 22.18 291.144ZM23.344 291.144C23.344 288.396 22.276 286.644 19.96 286.644C17.644 286.644 16.576 288.396 16.576 291.144C16.576 293.904 17.644 295.656 19.96 295.656C22.276 295.656 23.344 293.904 23.344 291.144ZM24.0656 287.82H28.8176C26.6576 289.692 25.2776 292.38 25.0856 295.5H26.4056C26.6096 292.248 27.9416 289.56 30.0896 287.82V286.8H24.0656V287.82Z" fill="#A0A09B"/>
<path d="M41.9946 286.644C40.1466 286.644 38.9466 287.784 38.9706 289.512H40.0986C40.1226 288.072 41.0346 287.556 41.9706 287.556C43.0026 287.556 43.6026 288.168 43.6026 289.068C43.6026 290.604 41.8026 292.248 38.7306 294.516V295.5H44.9946V294.48H40.2186C42.6546 292.728 44.7546 290.94 44.7546 288.924C44.7546 287.46 43.6026 286.644 41.9946 286.644ZM48.7007 295.5V286.8H47.9567C47.4767 287.748 46.8407 287.904 45.5927 287.952V288.696H47.6087V295.5H48.7007Z" fill="#A0A09B"/>
<path d="M63.9207 291.144C63.9207 293.568 63.0687 294.744 61.7007 294.744C60.3327 294.744 59.4807 293.568 59.4807 291.144C59.4807 288.732 60.3327 287.556 61.7007 287.556C63.0687 287.556 63.9207 288.732 63.9207 291.144ZM65.0847 291.144C65.0847 288.396 64.0167 286.644 61.7007 286.644C59.3847 286.644 58.3167 288.396 58.3167 291.144C58.3167 293.904 59.3847 295.656 61.7007 295.656C64.0167 295.656 65.0847 293.904 65.0847 291.144ZM70.1983 288.3V292.32H67.0903L70.1983 288.3ZM72.8983 292.32H71.3023V286.8H70.1863L65.8783 292.32V293.352H70.1983V295.5H71.3023V293.352H72.8983V292.32Z" fill="#A0A09B"/>
<path d="M84.3633 295.5V286.8H83.6193C83.1393 287.748 82.5033 287.904 81.2553 287.952V288.696H83.2713V295.5H84.3633ZM89.2853 286.644C87.4973 286.644 86.3813 287.58 86.3813 288.864C86.3813 289.572 86.7173 290.4 87.5813 290.868C86.4413 291.324 86.1053 292.26 86.1053 293.052C86.1053 294.708 87.4853 295.656 89.2853 295.656C91.0733 295.656 92.4533 294.708 92.4533 293.052C92.4533 292.26 92.1173 291.324 90.9893 290.868C91.8533 290.4 92.1893 289.572 92.1893 288.864C92.1893 287.58 91.0613 286.644 89.2853 286.644ZM89.2853 291.324C90.5093 291.324 91.3013 292.032 91.3013 293.052C91.3013 294.072 90.5093 294.744 89.2853 294.744C88.0493 294.744 87.2693 294.072 87.2693 293.052C87.2693 292.032 88.0493 291.324 89.2853 291.324ZM91.0853 288.996C91.0853 289.872 90.3653 290.52 89.2853 290.52C88.1933 290.52 87.4733 289.872 87.4733 288.996C87.4733 288.132 88.1933 287.556 89.2853 287.556C90.3653 287.556 91.0853 288.132 91.0853 288.996Z" fill="#A0A09B"/>
<path d="M106.661 291.144C106.661 293.568 105.809 294.744 104.441 294.744C103.073 294.744 102.221 293.568 102.221 291.144C102.221 288.732 103.073 287.556 104.441 287.556C105.809 287.556 106.661 288.732 106.661 291.144ZM107.825 291.144C107.825 288.396 106.757 286.644 104.441 286.644C102.125 286.644 101.057 288.396 101.057 291.144C101.057 293.904 102.125 295.656 104.441 295.656C106.757 295.656 107.825 293.904 107.825 291.144ZM112.039 286.644C110.191 286.644 108.991 287.784 109.015 289.512H110.143C110.167 288.072 111.079 287.556 112.015 287.556C113.047 287.556 113.647 288.168 113.647 289.068C113.647 290.604 111.847 292.248 108.775 294.516V295.5H115.039V294.48H110.263C112.699 292.728 114.799 290.94 114.799 288.924C114.799 287.46 113.647 286.644 112.039 286.644Z" fill="#A0A09B"/>
<path d="M127.104 295.5V286.8H126.36C125.88 287.748 125.244 287.904 123.996 287.952V288.696H126.012V295.5H127.104ZM130.106 292.716C130.106 291.528 130.874 290.652 132.014 290.652C133.13 290.652 133.91 291.528 133.91 292.716C133.91 293.904 133.118 294.744 132.002 294.744C130.85 294.744 130.106 293.916 130.106 292.716ZM132.11 287.556C132.998 287.556 133.598 288.036 133.742 288.816H134.93C134.75 287.712 133.946 286.644 132.242 286.644C129.722 286.644 128.846 288.996 128.846 291.456C128.846 294.144 129.842 295.656 132.014 295.656C133.874 295.656 135.074 294.276 135.074 292.656C135.074 290.916 133.886 289.704 132.266 289.704C131.114 289.704 130.37 290.232 129.974 290.916C130.034 288.9 130.766 287.556 132.11 287.556Z" fill="#A0A09B"/>
<path d="M146.846 286.644C144.998 286.644 143.798 287.784 143.822 289.512H144.95C144.974 288.072 145.886 287.556 146.822 287.556C147.854 287.556 148.454 288.168 148.454 289.068C148.454 290.604 146.654 292.248 143.582 294.516V295.5H149.846V294.48H145.07C147.506 292.728 149.606 290.94 149.606 288.924C149.606 287.46 148.454 286.644 146.846 286.644ZM155.76 289.584C155.76 290.772 155.004 291.636 153.864 291.636C152.736 291.636 151.968 290.772 151.968 289.584C151.968 288.396 152.748 287.556 153.876 287.556C155.028 287.556 155.76 288.384 155.76 289.584ZM153.756 294.744C152.868 294.744 152.28 294.264 152.136 293.484H150.948C151.128 294.588 151.932 295.656 153.636 295.656C156.144 295.656 157.032 293.304 157.032 290.844C157.032 288.156 156.036 286.644 153.864 286.644C152.004 286.644 150.804 288.024 150.804 289.632C150.804 291.384 151.992 292.596 153.6 292.596C154.752 292.596 155.508 292.068 155.904 291.384C155.844 293.4 155.1 294.744 153.756 294.744Z" fill="#A0A09B"/>
<path d="M168.845 295.5V286.8H168.101C167.621 287.748 166.985 287.904 165.737 287.952V288.696H167.753V295.5H168.845ZM173.497 295.5V286.8H172.753C172.273 287.748 171.637 287.904 170.389 287.952V288.696H172.405V295.5H173.497Z" fill="#A0A09B"/>
<path d="M186.587 286.644C184.739 286.644 183.539 287.784 183.563 289.512H184.691C184.715 288.072 185.627 287.556 186.563 287.556C187.595 287.556 188.195 288.168 188.195 289.068C188.195 290.604 186.395 292.248 183.323 294.516V295.5H189.587V294.48H184.811C187.247 292.728 189.347 290.94 189.347 288.924C189.347 287.46 188.195 286.644 186.587 286.644ZM194.202 288.3V292.32H191.094L194.202 288.3ZM196.902 292.32H195.306V286.8H194.19L189.882 292.32V293.352H194.202V295.5H195.306V293.352H196.902V292.32Z" fill="#A0A09B"/>
<path d="M211.513 291.144C211.513 293.568 210.661 294.744 209.293 294.744C207.925 294.744 207.073 293.568 207.073 291.144C207.073 288.732 207.925 287.556 209.293 287.556C210.661 287.556 211.513 288.732 211.513 291.144ZM212.677 291.144C212.677 288.396 211.609 286.644 209.293 286.644C206.977 286.644 205.909 288.396 205.909 291.144C205.909 293.904 206.977 295.656 209.293 295.656C211.609 295.656 212.677 293.904 212.677 291.144ZM213.399 287.82H218.151C215.991 289.692 214.611 292.38 214.419 295.5H215.739C215.943 292.248 217.275 289.56 219.423 287.82V286.8H213.399V287.82Z" fill="#A0A09B"/>
<path d="M231.328 286.644C229.48 286.644 228.28 287.784 228.304 289.512H229.432C229.456 288.072 230.368 287.556 231.304 287.556C232.336 287.556 232.936 288.168 232.936 289.068C232.936 290.604 231.136 292.248 228.064 294.516V295.5H234.328V294.48H229.552C231.988 292.728 234.088 290.94 234.088 288.924C234.088 287.46 232.936 286.644 231.328 286.644ZM238.034 295.5V286.8H237.29C236.81 287.748 236.174 287.904 234.926 287.952V288.696H236.942V295.5H238.034Z" fill="#A0A09B"/>
<path d="M253.254 291.144C253.254 293.568 252.402 294.744 251.034 294.744C249.666 294.744 248.814 293.568 248.814 291.144C248.814 288.732 249.666 287.556 251.034 287.556C252.402 287.556 253.254 288.732 253.254 291.144ZM254.418 291.144C254.418 288.396 253.35 286.644 251.034 286.644C248.718 286.644 247.65 288.396 247.65 291.144C247.65 293.904 248.718 295.656 251.034 295.656C253.35 295.656 254.418 293.904 254.418 291.144ZM258.632 294.744C257.42 294.744 256.832 294.072 256.664 292.98H255.536C255.704 294.384 256.616 295.656 258.632 295.656C260.252 295.656 261.728 294.624 261.728 292.632C261.728 290.712 260.396 289.632 258.872 289.632C258.152 289.632 257.456 289.848 257 290.292L257.3 287.82H261.404V286.8H256.412L255.848 291.48L256.94 291.54C257.132 291.108 257.72 290.58 258.62 290.58C259.568 290.58 260.576 291.204 260.576 292.644C260.576 293.988 259.676 294.744 258.632 294.744Z" fill="#A0A09B"/>
<path d="M273.696 295.5V286.8H272.952C272.472 287.748 271.836 287.904 270.588 287.952V288.696H272.604V295.5H273.696ZM280.322 289.584C280.322 290.772 279.566 291.636 278.426 291.636C277.298 291.636 276.53 290.772 276.53 289.584C276.53 288.396 277.31 287.556 278.438 287.556C279.59 287.556 280.322 288.384 280.322 289.584ZM278.318 294.744C277.43 294.744 276.842 294.264 276.698 293.484H275.51C275.69 294.588 276.494 295.656 278.198 295.656C280.706 295.656 281.594 293.304 281.594 290.844C281.594 288.156 280.598 286.644 278.426 286.644C276.566 286.644 275.366 288.024 275.366 289.632C275.366 291.384 276.554 292.596 278.162 292.596C279.314 292.596 280.07 292.068 280.466 291.384C280.406 293.4 279.662 294.744 278.318 294.744Z" fill="#A0A09B"/>
<path d="M295.995 291.144C295.995 293.568 295.143 294.744 293.775 294.744C292.407 294.744 291.555 293.568 291.555 291.144C291.555 288.732 292.407 287.556 293.775 287.556C295.143 287.556 295.995 288.732 295.995 291.144ZM297.159 291.144C297.159 288.396 296.091 286.644 293.775 286.644C291.459 286.644 290.391 288.396 290.391 291.144C290.391 293.904 291.459 295.656 293.775 295.656C296.091 295.656 297.159 293.904 297.159 291.144ZM301.001 295.5V286.8H300.257C299.777 287.748 299.141 287.904 297.893 287.952V288.696H299.909V295.5H301.001Z" fill="#A0A09B"/>
<path d="M313.438 295.5V286.8H312.694C312.214 287.748 311.578 287.904 310.33 287.952V288.696H312.346V295.5H313.438ZM319.128 288.3V292.32H316.02L319.128 288.3ZM321.828 292.32H320.232V286.8H319.116L314.808 292.32V293.352H319.128V295.5H320.232V293.352H321.828V292.32Z" fill="#A0A09B"/>
<path d="M333.18 286.644C331.332 286.644 330.132 287.784 330.156 289.512H331.284C331.308 288.072 332.22 287.556 333.156 287.556C334.188 287.556 334.788 288.168 334.788 289.068C334.788 290.604 332.988 292.248 329.916 294.516V295.5H336.18V294.48H331.404C333.84 292.728 335.94 290.94 335.94 288.924C335.94 287.46 334.788 286.644 333.18 286.644ZM340.39 286.644C338.602 286.644 337.486 287.58 337.486 288.864C337.486 289.572 337.822 290.4 338.686 290.868C337.546 291.324 337.21 292.26 337.21 293.052C337.21 294.708 338.59 295.656 340.39 295.656C342.178 295.656 343.558 294.708 343.558 293.052C343.558 292.26 343.222 291.324 342.094 290.868C342.958 290.4 343.294 289.572 343.294 288.864C343.294 287.58 342.166 286.644 340.39 286.644ZM340.39 291.324C341.614 291.324 342.406 292.032 342.406 293.052C342.406 294.072 341.614 294.744 340.39 294.744C339.154 294.744 338.374 294.072 338.374 293.052C338.374 292.032 339.154 291.324 340.39 291.324ZM342.19 288.996C342.19 289.872 341.47 290.52 340.39 290.52C339.298 290.52 338.578 289.872 338.578 288.996C338.578 288.132 339.298 287.556 340.39 287.556C341.47 287.556 342.19 288.132 342.19 288.996Z" fill="#A0A09B"/>
<path d="M355.178 295.5V286.8H354.434C353.954 287.748 353.318 287.904 352.07 287.952V288.696H354.086V295.5H355.178ZM359.83 295.5V286.8H359.086C358.606 287.748 357.97 287.904 356.722 287.952V288.696H358.738V295.5H359.83Z" fill="#A0A09B"/>
<path d="M372.92 286.644C371.072 286.644 369.872 287.784 369.896 289.512H371.024C371.048 288.072 371.96 287.556 372.896 287.556C373.928 287.556 374.528 288.168 374.528 289.068C374.528 290.604 372.728 292.248 369.656 294.516V295.5H375.92V294.48H371.144C373.58 292.728 375.68 290.94 375.68 288.924C375.68 287.46 374.528 286.644 372.92 286.644ZM379.998 294.744C378.786 294.744 378.198 294.072 378.03 292.98H376.902C377.07 294.384 377.982 295.656 379.998 295.656C381.618 295.656 383.094 294.624 383.094 292.632C383.094 290.712 381.762 289.632 380.238 289.632C379.518 289.632 378.822 289.848 378.366 290.292L378.666 287.82H382.77V286.8H377.778L377.214 291.48L378.306 291.54C378.498 291.108 379.086 290.58 379.986 290.58C380.934 290.58 381.942 291.204 381.942 292.644C381.942 293.988 381.042 294.744 379.998 294.744Z" fill="#A0A09B"/>
<path d="M397.847 291.144C397.847 293.568 396.995 294.744 395.627 294.744C394.259 294.744 393.407 293.568 393.407 291.144C393.407 288.732 394.259 287.556 395.627 287.556C396.995 287.556 397.847 288.732 397.847 291.144ZM399.011 291.144C399.011 288.396 397.943 286.644 395.627 286.644C393.311 286.644 392.243 288.396 392.243 291.144C392.243 293.904 393.311 295.656 395.627 295.656C397.943 295.656 399.011 293.904 399.011 291.144ZM403.357 286.644C401.569 286.644 400.453 287.58 400.453 288.864C400.453 289.572 400.789 290.4 401.653 290.868C400.513 291.324 400.177 292.26 400.177 293.052C400.177 294.708 401.557 295.656 403.357 295.656C405.145 295.656 406.525 294.708 406.525 293.052C406.525 292.26 406.189 291.324 405.061 290.868C405.925 290.4 406.261 289.572 406.261 288.864C406.261 287.58 405.133 286.644 403.357 286.644ZM403.357 291.324C404.581 291.324 405.373 292.032 405.373 293.052C405.373 294.072 404.581 294.744 403.357 294.744C402.121 294.744 401.341 294.072 401.341 293.052C401.341 292.032 402.121 291.324 403.357 291.324ZM405.157 288.996C405.157 289.872 404.437 290.52 403.357 290.52C402.265 290.52 401.545 289.872 401.545 288.996C401.545 288.132 402.265 287.556 403.357 287.556C404.437 287.556 405.157 288.132 405.157 288.996Z" fill="#A0A09B"/>
<path d="M418.661 286.644C416.813 286.644 415.613 287.784 415.637 289.512H416.765C416.789 288.072 417.701 287.556 418.637 287.556C419.669 287.556 420.269 288.168 420.269 289.068C420.269 290.604 418.469 292.248 415.397 294.516V295.5H421.661V294.48H416.885C419.321 292.728 421.421 290.94 421.421 288.924C421.421 287.46 420.269 286.644 418.661 286.644ZM425.739 286.644C423.891 286.644 422.691 287.784 422.715 289.512H423.843C423.867 288.072 424.779 287.556 425.715 287.556C426.747 287.556 427.347 288.168 427.347 289.068C427.347 290.604 425.547 292.248 422.475 294.516V295.5H428.739V294.48H423.963C426.399 292.728 428.499 290.94 428.499 288.924C428.499 287.46 427.347 286.644 425.739 286.644Z" fill="#A0A09B"/>
<path d="M443.587 291.144C443.587 293.568 442.735 294.744 441.367 294.744C439.999 294.744 439.147 293.568 439.147 291.144C439.147 288.732 439.999 287.556 441.367 287.556C442.735 287.556 443.587 288.732 443.587 291.144ZM444.751 291.144C444.751 288.396 443.683 286.644 441.367 286.644C439.051 286.644 437.983 288.396 437.983 291.144C437.983 293.904 439.051 295.656 441.367 295.656C443.683 295.656 444.751 293.904 444.751 291.144ZM448.965 294.744C447.753 294.744 447.165 294.072 446.997 292.98H445.869C446.037 294.384 446.949 295.656 448.965 295.656C450.585 295.656 452.061 294.624 452.061 292.632C452.061 290.712 450.729 289.632 449.205 289.632C448.485 289.632 447.789 289.848 447.333 290.292L447.633 287.82H451.737V286.8H446.745L446.181 291.48L447.273 291.54C447.465 291.108 448.053 290.58 448.953 290.58C449.901 290.58 450.909 291.204 450.909 292.644C450.909 293.988 450.009 294.744 448.965 294.744Z" fill="#A0A09B"/>
<path d="M464.029 295.5V286.8H463.285C462.805 287.748 462.169 287.904 460.921 287.952V288.696H462.937V295.5H464.029ZM470.655 289.584C470.655 290.772 469.899 291.636 468.759 291.636C467.631 291.636 466.863 290.772 466.863 289.584C466.863 288.396 467.643 287.556 468.771 287.556C469.923 287.556 470.655 288.384 470.655 289.584ZM468.651 294.744C467.763 294.744 467.175 294.264 467.031 293.484H465.843C466.023 294.588 466.827 295.656 468.531 295.656C471.039 295.656 471.927 293.304 471.927 290.844C471.927 288.156 470.931 286.644 468.759 286.644C466.899 286.644 465.699 288.024 465.699 289.632C465.699 291.384 466.887 292.596 468.495 292.596C469.647 292.596 470.403 292.068 470.799 291.384C470.739 293.4 469.995 294.744 468.651 294.744Z" fill="#A0A09B"/>
<path d="M486.328 291.144C486.328 293.568 485.476 294.744 484.108 294.744C482.74 294.744 481.888 293.568 481.888 291.144C481.888 288.732 482.74 287.556 484.108 287.556C485.476 287.556 486.328 288.732 486.328 291.144ZM487.492 291.144C487.492 288.396 486.424 286.644 484.108 286.644C481.792 286.644 480.724 288.396 480.724 291.144C480.724 293.904 481.792 295.656 484.108 295.656C486.424 295.656 487.492 293.904 487.492 291.144ZM491.706 294.744C490.494 294.744 489.906 294.072 489.738 292.98H488.61C488.778 294.384 489.69 295.656 491.706 295.656C493.326 295.656 494.802 294.624 494.802 292.632C494.802 290.712 493.47 289.632 491.946 289.632C491.226 289.632 490.53 289.848 490.074 290.292L490.374 287.82H494.478V286.8H489.486L488.922 291.48L490.014 291.54C490.206 291.108 490.794 290.58 491.694 290.58C492.642 290.58 493.65 291.204 493.65 292.644C493.65 293.988 492.75 294.744 491.706 294.744Z" fill="#A0A09B"/>
<path d="M506.771 295.5V286.8H506.027C505.547 287.748 504.911 287.904 503.663 287.952V288.696H505.679V295.5H506.771ZM513.397 289.584C513.397 290.772 512.641 291.636 511.501 291.636C510.373 291.636 509.605 290.772 509.605 289.584C509.605 288.396 510.385 287.556 511.513 287.556C512.665 287.556 513.397 288.384 513.397 289.584ZM511.393 294.744C510.505 294.744 509.917 294.264 509.773 293.484H508.585C508.765 294.588 509.569 295.656 511.273 295.656C513.781 295.656 514.669 293.304 514.669 290.844C514.669 288.156 513.673 286.644 511.501 286.644C509.641 286.644 508.441 288.024 508.441 289.632C508.441 291.384 509.629 292.596 511.237 292.596C512.389 292.596 513.145 292.068 513.541 291.384C513.481 293.4 512.737 294.744 511.393 294.744Z" fill="#A0A09B"/>
<path d="M529.069 291.144C529.069 293.568 528.217 294.744 526.849 294.744C525.481 294.744 524.629 293.568 524.629 291.144C524.629 288.732 525.481 287.556 526.849 287.556C528.217 287.556 529.069 288.732 529.069 291.144ZM530.233 291.144C530.233 288.396 529.165 286.644 526.849 286.644C524.533 286.644 523.465 288.396 523.465 291.144C523.465 293.904 524.533 295.656 526.849 295.656C529.165 295.656 530.233 293.904 530.233 291.144ZM534.446 286.644C532.598 286.644 531.398 287.784 531.422 289.512H532.55C532.574 288.072 533.486 287.556 534.422 287.556C535.454 287.556 536.054 288.168 536.054 289.068C536.054 290.604 534.254 292.248 531.182 294.516V295.5H537.446V294.48H532.67C535.106 292.728 537.206 290.94 537.206 288.924C537.206 287.46 536.054 286.644 534.446 286.644Z" fill="#A0A09B"/>
<path d="M549.511 295.5V286.8H548.767C548.287 287.748 547.651 287.904 546.403 287.952V288.696H548.419V295.5H549.511ZM552.513 292.716C552.513 291.528 553.281 290.652 554.421 290.652C555.537 290.652 556.317 291.528 556.317 292.716C556.317 293.904 555.525 294.744 554.409 294.744C553.257 294.744 552.513 293.916 552.513 292.716ZM554.517 287.556C555.405 287.556 556.005 288.036 556.149 288.816H557.337C557.157 287.712 556.353 286.644 554.649 286.644C552.129 286.644 551.253 288.996 551.253 291.456C551.253 294.144 552.249 295.656 554.421 295.656C556.281 295.656 557.481 294.276 557.481 292.656C557.481 290.916 556.293 289.704 554.673 289.704C553.521 289.704 552.777 290.232 552.381 290.916C552.441 288.9 553.173 287.556 554.517 287.556Z" fill="#A0A09B"/>
<path d="M569.254 286.644C567.406 286.644 566.206 287.784 566.23 289.512H567.358C567.382 288.072 568.294 287.556 569.23 287.556C570.262 287.556 570.862 288.168 570.862 289.068C570.862 290.604 569.062 292.248 565.99 294.516V295.5H572.254V294.48H567.478C569.914 292.728 572.014 290.94 572.014 288.924C572.014 287.46 570.862 286.644 569.254 286.644ZM578.168 289.584C578.168 290.772 577.412 291.636 576.272 291.636C575.144 291.636 574.376 290.772 574.376 289.584C574.376 288.396 575.156 287.556 576.284 287.556C577.436 287.556 578.168 288.384 578.168 289.584ZM576.164 294.744C575.276 294.744 574.688 294.264 574.544 293.484H573.356C573.536 294.588 574.34 295.656 576.044 295.656C578.552 295.656 579.44 293.304 579.44 290.844C579.44 288.156 578.444 286.644 576.272 286.644C574.412 286.644 573.212 288.024 573.212 289.632C573.212 291.384 574.4 292.596 576.008 292.596C577.16 292.596 577.916 292.068 578.312 291.384C578.252 293.4 577.508 294.744 576.164 294.744Z" fill="#A0A09B"/>
<path d="M591.252 295.5V286.8H590.508C590.028 287.748 589.392 287.904 588.144 287.952V288.696H590.16V295.5H591.252ZM595.802 294.744C594.578 294.744 593.942 294 593.822 292.932H592.694C592.814 294.384 593.75 295.656 595.79 295.656C597.446 295.656 598.934 294.804 598.934 293.052C598.934 292.14 598.574 291.276 597.278 290.868C598.19 290.496 598.694 289.74 598.694 288.852C598.694 287.244 597.386 286.644 595.874 286.644C594.05 286.644 592.958 287.712 592.826 289.248H593.954C594.05 288.264 594.686 287.556 595.85 287.556C596.774 287.556 597.542 288.036 597.542 288.972C597.542 289.992 596.738 290.412 595.226 290.412H595.082V291.408H595.262C596.654 291.408 597.77 291.816 597.77 293.064C597.77 294.144 596.954 294.744 595.802 294.744Z" fill="#A0A09B"/>
</svg>
