<svg width="16" height="16" viewBox="0 0 16 16" fill="none" xmlns="http://www.w3.org/2000/svg">
<path d="M8.11383 4.75C6.69107 4.75 5.64771 5.60366 5.64771 6.94106H6.76695C6.7954 6.16328 7.25069 5.66057 8.09486 5.66057C8.69242 5.66057 9.19513 5.96409 9.19513 6.50474C9.19513 7.04539 8.78727 7.39634 8.23714 7.72832C7.53524 8.15515 7.16532 8.55352 7.16532 9.43564V9.75813H8.29405V9.46409C8.29405 8.83808 8.56911 8.64837 9.15719 8.28794C9.73578 7.93699 10.3523 7.32995 10.3523 6.43835C10.3523 5.28117 9.24256 4.75 8.11383 4.75ZM8.37941 11.75V10.46H7.08944V11.75H8.37941Z" fill="#A0A09B"/>
<circle cx="8" cy="8.25" r="7" stroke="#A0A09B"/>
</svg>
