<svg width="14" height="15" viewBox="0 0 14 15" fill="none" xmlns="http://www.w3.org/2000/svg">
    <path d="M7.625 10.8267C7.625 10.4815 7.34518 10.2017 7 10.2017C6.65482 10.2017 6.375 10.4815 6.375 10.8267H7.625ZM6.375 10.8334C6.375 11.1785 6.65482 11.4584 7 11.4584C7.34518 11.4584 7.625 11.1785 7.625 10.8334H6.375ZM6.375 8.83333C6.375 9.17851 6.65482 9.45833 7 9.45833C7.34518 9.45833 7.625 9.17851 7.625 8.83333H6.375ZM4.39656 5.45848C4.30668 5.79175 4.504 6.13478 4.83727 6.22465C5.17054 6.31453 5.51357 6.11722 5.60344 5.78394L4.39656 5.45848ZM6.375 10.8267V10.8334H7.625V10.8267H6.375ZM8.375 6.10606C8.375 6.43013 8.18994 6.60647 7.64791 6.97603C7.20936 7.27505 6.375 7.78494 6.375 8.83333H7.625C7.625 8.54839 7.79064 8.39162 8.35209 8.00882C8.81006 7.69656 9.625 7.17594 9.625 6.10606H8.375ZM7 4.79167C7.79168 4.79167 8.375 5.39457 8.375 6.10606H9.625C9.625 4.67535 8.45281 3.54167 7 3.54167V4.79167ZM5.60344 5.78394C5.74976 5.24138 6.31315 4.79167 7 4.79167V3.54167C5.79318 3.54167 4.70139 4.32809 4.39656 5.45848L5.60344 5.78394ZM12.375 7.5C12.375 10.4685 9.96853 12.875 7 12.875V14.125C10.6589 14.125 13.625 11.1589 13.625 7.5H12.375ZM7 12.875C4.03147 12.875 1.625 10.4685 1.625 7.5H0.375C0.375 11.1589 3.34111 14.125 7 14.125V12.875ZM1.625 7.5C1.625 4.53147 4.03147 2.125 7 2.125V0.875C3.34111 0.875 0.375 3.84111 0.375 7.5H1.625ZM7 2.125C9.96853 2.125 12.375 4.53147 12.375 7.5H13.625C13.625 3.84111 10.6589 0.875 7 0.875V2.125Z" fill="white"/>
</svg>
