<svg width="18" height="17" viewBox="0 0 18 17" fill="none" xmlns="http://www.w3.org/2000/svg">
    <path d="M7.2054 1.83333C7.2054 1.3731 7.5785 1 8.03874 1H9.7054C10.1656 1 10.5387 1.3731 10.5387 1.83333V2.30732C10.5387 2.66382 10.778 2.97354 11.1072 3.11024C11.4366 3.24699 11.8201 3.19487 12.0723 2.94269L12.4076 2.60742C12.733 2.28199 13.2606 2.28199 13.5861 2.60742L14.7646 3.78594C15.09 4.11137 15.09 4.63901 14.7646 4.96445L14.4294 5.29967C14.1772 5.55186 14.1251 5.93539 14.2618 6.26479C14.3985 6.59406 14.7083 6.83333 15.0648 6.83333L15.5387 6.83333C15.999 6.83333 16.3721 7.20643 16.3721 7.66667V9.33333C16.3721 9.79357 15.999 10.1667 15.5387 10.1667H15.0648C14.7083 10.1667 14.3985 10.4059 14.2618 10.7352C14.1251 11.0646 14.1772 11.4481 14.4294 11.7003L14.7646 12.0355C15.09 12.361 15.09 12.8886 14.7646 13.214L13.5861 14.3925C13.2607 14.718 12.733 14.718 12.4076 14.3925L12.0724 14.0573C11.8202 13.8051 11.4367 13.753 11.1073 13.8898C10.778 14.0265 10.5387 14.3362 10.5387 14.6927V15.1667C10.5387 15.6269 10.1656 16 9.7054 16H8.03874C7.5785 16 7.2054 15.6269 7.2054 15.1667V14.6927C7.2054 14.3362 6.96613 14.0265 6.63686 13.8897C6.30746 13.753 5.92393 13.8051 5.67174 14.0573L5.3365 14.3925C5.01107 14.718 4.48343 14.718 4.15799 14.3925L2.97948 13.214C2.65404 12.8886 2.65404 12.361 2.97948 12.0355L3.31476 11.7002C3.56694 11.4481 3.61906 11.0646 3.48231 10.7352C3.34561 10.4059 3.03589 10.1667 2.67939 10.1667H2.2054C1.74517 10.1667 1.37207 9.79357 1.37207 9.33333V7.66667C1.37207 7.20643 1.74517 6.83333 2.2054 6.83333L2.67938 6.83333C3.03589 6.83333 3.34561 6.59406 3.48231 6.2648C3.61907 5.93542 3.56695 5.5519 3.31476 5.29972L2.97949 4.96445C2.65406 4.63901 2.65406 4.11137 2.97949 3.78594L4.15801 2.60743C4.48344 2.28199 5.01108 2.28199 5.33652 2.60743L5.67178 2.94269C5.92397 3.19488 6.30749 3.247 6.63687 3.11024C6.96613 2.97354 7.2054 2.66381 7.2054 2.3073V1.83333Z" stroke="#666666" stroke-width="1.5"/>
    <path d="M10.5387 8.5C10.5387 9.42047 9.79254 10.1667 8.87207 10.1667C7.9516 10.1667 7.2054 9.42047 7.2054 8.5C7.2054 7.57953 7.9516 6.83333 8.87207 6.83333C9.79254 6.83333 10.5387 7.57953 10.5387 8.5Z" stroke="#666666" stroke-width="1.5"/>
</svg>
