<svg width="14" height="14" viewBox="0 0 14 14" fill="none" xmlns="http://www.w3.org/2000/svg">
    <path d="M8.98681 10.5524L9.43402 10.776L9.88124 9.8816L9.43402 9.658L8.98681 10.5524ZM5.01947 7.45072L4.57226 7.22711L4.12505 8.12154L4.57226 8.34515L5.01947 7.45072ZM4.56599 5.65799L4.11878 5.8816L4.56599 6.77602L5.0132 6.55242L4.56599 5.65799ZM9.43191 4.34306L9.87913 4.11945L9.43191 3.22503L8.9847 3.44863L9.43191 4.34306ZM12.5 11C12.5 11.8284 11.8284 12.5 11 12.5V13.5C12.3807 13.5 13.5 12.3807 13.5 11H12.5ZM11 12.5C10.1716 12.5 9.5 11.8284 9.5 11H8.5C8.5 12.3807 9.61929 13.5 11 13.5V12.5ZM9.5 11C9.5 10.1716 10.1716 9.5 11 9.5V8.5C9.61929 8.5 8.5 9.61929 8.5 11H9.5ZM11 9.5C11.8284 9.5 12.5 10.1716 12.5 11H13.5C13.5 9.61929 12.3807 8.5 11 8.5V9.5ZM12.5 3C12.5 3.82843 11.8284 4.5 11 4.5V5.5C12.3807 5.5 13.5 4.38071 13.5 3H12.5ZM11 4.5C10.1716 4.5 9.5 3.82843 9.5 3H8.5C8.5 4.38071 9.61929 5.5 11 5.5V4.5ZM9.5 3C9.5 2.17157 10.1716 1.5 11 1.5V0.5C9.61929 0.5 8.5 1.61929 8.5 3H9.5ZM11 1.5C11.8284 1.5 12.5 2.17157 12.5 3H13.5C13.5 1.61929 12.3807 0.5 11 0.5V1.5ZM4.5 7C4.5 7.82843 3.82843 8.5 3 8.5V9.5C4.38071 9.5 5.5 8.38071 5.5 7H4.5ZM3 8.5C2.17157 8.5 1.5 7.82843 1.5 7H0.5C0.5 8.38071 1.61929 9.5 3 9.5V8.5ZM1.5 7C1.5 6.17157 2.17157 5.5 3 5.5V4.5C1.61929 4.5 0.5 5.61929 0.5 7H1.5ZM3 5.5C3.82843 5.5 4.5 6.17157 4.5 7H5.5C5.5 5.61929 4.38071 4.5 3 4.5V5.5ZM9.43402 9.658L5.01947 7.45072L4.57226 8.34515L8.98681 10.5524L9.43402 9.658ZM5.0132 6.55242L9.43191 4.34306L8.9847 3.44863L4.56599 5.65799L5.0132 6.55242Z" fill="#F5F5F3"/>
</svg>
