<svg width="24" height="25" viewBox="0 0 24 25" fill="none" xmlns="http://www.w3.org/2000/svg">
    <path fill-rule="evenodd" clip-rule="evenodd" d="M0 4.25C0 2.17893 1.67893 0.5 3.75 0.5H20.25C22.3211 0.5 24 2.17893 24 4.25V20.75C24 22.8211 22.3211 24.5 20.25 24.5H3.75C1.67893 24.5 0 22.8211 0 20.75V4.25ZM16.575 9.125C17.1 9.05 17.55 8.975 18 8.75C17.7 9.275 17.25 9.725 16.725 10.025C16.875 13.55 14.325 17.375 9.75 17.375C8.4 17.375 7.125 16.925 6 16.25C7.275 16.4 8.625 16.025 9.525 15.35C8.4 15.35 7.5 14.6 7.2 13.625C7.575 13.7 7.95 13.625 8.325 13.55C7.2 13.25 6.375 12.2 6.375 11.075C6.75 11.225 7.125 11.375 7.5 11.375C6.45 10.625 6.075 9.2 6.75 8.075C8.025 9.575 9.825 10.55 11.85 10.625C11.475 9.125 12.675 7.625 14.25 7.625C14.925 7.625 15.6 7.925 16.05 8.375C16.65 8.225 17.175 8.075 17.625 7.775C17.475 8.375 17.1 8.825 16.575 9.125Z" fill="#1E1E19"/>
</svg>
