<svg width="40" height="40" viewBox="0 0 40 40" fill="none" xmlns="http://www.w3.org/2000/svg">
    <g clip-path="url(#clip0_301_6019)">
        <path d="M8.18873 12.5319C14.7119 6.14528 25.2881 6.14528 31.8111 12.5319L32.5962 13.3006C32.9223 13.6199 32.9223 14.1377 32.5962 14.457L29.9106 17.0863C29.7475 17.2461 29.4831 17.2461 29.3201 17.0863L28.2397 16.0286C23.689 11.5731 16.3109 11.5731 11.7601 16.0286L10.6031 17.1614C10.4401 17.3211 10.1757 17.3211 10.0126 17.1614L7.327 14.5321C7.00087 14.2127 7.00087 13.695 7.327 13.3757L8.18873 12.5321V12.5319ZM37.3651 17.9698L39.7553 20.3099C40.0814 20.6293 40.0814 21.147 39.7553 21.4663L28.9778 32.0185C28.6517 32.3378 28.1229 32.3378 27.7967 32.0185L20.1475 24.5293C20.0659 24.4494 19.9338 24.4494 19.8522 24.5293L12.2033 32.0185C11.8771 32.3378 11.3483 32.3378 11.0222 32.0185L0.2446 21.4663C-0.0815333 21.147 -0.0815333 20.6293 0.2446 20.3099L2.63473 17.9698C2.96087 17.6505 3.48967 17.6505 3.8158 17.9698L11.465 25.4592C11.5466 25.539 11.6787 25.539 11.7603 25.4592L19.4093 17.9698C19.7354 17.6505 20.2642 17.6505 20.5903 17.9698L28.2395 25.4592C28.3211 25.539 28.4533 25.539 28.5349 25.4592L36.1839 17.9701C36.5101 17.6507 37.0389 17.6507 37.365 17.9701L37.3651 17.9698Z" fill="#3B99FC"/>
    </g>
    <defs>
        <clipPath id="clip0_301_6019">
            <rect width="40" height="24.5161" fill="white" transform="translate(0 7.74194)"/>
        </clipPath>
    </defs>
</svg>
