<svg width="50" height="50" viewBox="0 0 50 50" fill="none" xmlns="http://www.w3.org/2000/svg">
    <path fill-rule="evenodd" clip-rule="evenodd" d="M0 25C0 38.8071 11.1929 50 25 50C38.8071 50 50 38.8071 50 25C50 11.1929 38.8071 0 25 0C11.1929 0 0 11.1929 0 25ZM40.6897 24.0432C40.6864 32.2378 34.0203 38.9055 25.824 38.9089H25.8179C23.3299 38.908 20.8852 38.2838 18.7139 37.0994L10.8333 39.1667L12.9423 31.4634C11.6414 29.2089 10.9569 26.6516 10.958 24.0315C10.9612 15.8351 17.63 9.16667 25.8239 9.16667C29.8007 9.16838 33.5331 10.7165 36.3398 13.5265C39.1465 16.3363 40.6913 20.0712 40.6897 24.0432Z" fill="#666666"/>
    <path fill-rule="evenodd" clip-rule="evenodd" d="M14.4026 35.6349L19.079 34.4082L19.5302 34.6759C21.4273 35.8017 23.6019 36.3974 25.819 36.3982H25.824C32.6342 36.3982 38.177 30.8553 38.1797 24.0423C38.181 20.7408 36.897 17.6365 34.5642 15.301C32.2314 12.9655 29.1291 11.6786 25.8289 11.6775C19.0135 11.6775 13.4706 17.2199 13.4679 24.0323C13.4669 26.367 14.1202 28.6407 15.357 30.6079L15.6508 31.0754L14.4026 35.6349ZM32.8046 27.2438C33.0637 27.369 33.2386 27.4535 33.3133 27.5782C33.4061 27.7331 33.4061 28.4768 33.0968 29.3446C32.7871 30.2122 31.3032 31.0041 30.5895 31.1107C29.9496 31.2064 29.1397 31.2463 28.2499 30.9635C27.7104 30.7924 27.0186 30.5638 26.1324 30.1811C22.6502 28.6775 20.2969 25.3024 19.8521 24.6646C19.821 24.6199 19.7992 24.5886 19.787 24.5724L19.784 24.5684C19.5875 24.3061 18.2703 22.5487 18.2703 20.7299C18.2703 19.019 19.1108 18.1221 19.4977 17.7093C19.5242 17.6811 19.5485 17.6551 19.5704 17.6312C19.9108 17.2593 20.3133 17.1664 20.5609 17.1664C20.8085 17.1664 21.0564 17.1687 21.2728 17.1795C21.2995 17.1809 21.3273 17.1807 21.356 17.1805C21.5724 17.1793 21.8423 17.1777 22.1085 17.8171C22.2109 18.0632 22.3608 18.4281 22.5188 18.8129C22.8385 19.591 23.1916 20.4508 23.2538 20.5752C23.3466 20.7611 23.4085 20.9779 23.2847 21.2259C23.2661 21.2631 23.2489 21.2982 23.2325 21.3318C23.1395 21.5216 23.0711 21.6613 22.9133 21.8455C22.8512 21.918 22.7871 21.9961 22.7229 22.0742C22.5952 22.2299 22.4674 22.3855 22.3561 22.4963C22.1702 22.6816 21.9766 22.8825 22.1933 23.2544C22.4099 23.6263 23.1554 24.8426 24.2596 25.8275C25.4466 26.8863 26.4783 27.3338 27.0012 27.5606C27.1033 27.6049 27.1861 27.6408 27.2467 27.6712C27.618 27.8572 27.8347 27.826 28.0514 27.5782C28.2681 27.3303 28.98 26.4936 29.2276 26.1218C29.4751 25.75 29.7229 25.8119 30.0633 25.9358C30.4038 26.0599 32.23 26.9584 32.6015 27.1443C32.674 27.1806 32.7418 27.2134 32.8046 27.2438Z" fill="#666666"/>
</svg>
